<svg xmlns="http://www.w3.org/2000/svg" xml:space="preserve" id="woman-is-pointing-people-feedback" x="0" y="0" style="enable-background:new 0 0 850 850" version="1.1" viewBox="0 0 850 850">
  <g>
    <g>
      <g>
        <path d="M449.6,297.6c4.7-13.1,17.1-21.9,30.9-21.1c8,0.5,17,2.6,26.1,8.1c28.1,17,91.1,72.6,85.8,154.3
				c-5.2,78.5-5.4,138.3-103.7,134.2c-11.8-0.5-23.7-0.7-35.5-0.8c-43.9-0.3-139-3-184.2-19.2c-38.3-13.7-27.6-42.5-14.9-61.4
				c18.6-27.6,21.8-62.9,7.5-93c-0.7-1.4-1.3-2.8-2.1-4.2c-23.2-45.1,38.4-89.8,104.1-71.5C416.6,327.6,442.4,317.6,449.6,297.6z" style="fill:#f4f4f4"></path>
      </g>
      <g>
        <path d="M608.2,285.5c-2.2-2.7-13.8-4.4-17-4c-3.1,0.4-8.6-6.4-11.7-8c-3.1-1.6-4.8,3.3-8.6,5.2
				c-3.8,2-8-7.2-15.7-11.1c-7.7-3.9-13,17.9-13,17.9H608.2z" style="fill:#f4f4f4"></path>
      </g>
      <g>
        <path d="M387.6,285.5c-2.2-2.7-13.8-4.4-17-4c-3.1,0.4-8.6-6.4-11.7-8s-4.8,3.3-8.6,5.2c-3.8,2-8-7.2-15.7-11.1
				s-13,17.9-13,17.9H387.6z" style="fill:#f4f4f4"></path>
      </g>
      <g>
        <path d="M525.3,345.8c-2.2-2.7-13.8-4.4-17-4c-3.1,0.4-8.6-6.4-11.7-8s-4.8,3.3-8.6,5.2c-3.8,2-8-7.2-15.7-11.1
				s-13,17.9-13,17.9H525.3z" style="fill:#fff"></path>
      </g>
      <g>
        <path d="M294,366.5c0,0,10.9-16.8,21.3-12.8s24,12.9,32.7,10.7c8.7-2.2,18.4-9.1,24.1-7.4c5.7,1.7,15.6,9.5,15.6,9.5
				h-94.3" style="fill:#fff"></path>
      </g>
    </g>
    <g>
      <g>
        <g>
          <ellipse cx="273" cy="593.4" rx="53.9" ry="5.7" style="fill:#f4f4f4"></ellipse>
        </g>
        <g>
          <g>
            <path d="M276.2,267.8c0,0,11,3.2,13.4,11.4c1.6,5.2-0.9,36.6,14.5,46.3c0,0-23.3,11.4-42.8,7.1s-30.3-1.1-30.3-1.1
						s14.5-24.6,14.8-39.2C246.1,285.1,254.3,262.7,276.2,267.8z" style="fill:#3c4150"></path>
          </g>
          <g>
            <path d="M347.3,351.7c4.5-0.1,13.2-7.6,12.4-8.7c-0.8-1.2-4.1,0.7-4.1,0.7s3.9-2,3.2-3.4s-4.1,1.3-4.1,1.3
						s4-2.9,2.7-3.9c-1.3-1-5.2,2.6-5.2,2.6s10.7-8.9,8.6-10.6s-11.3,9.5-11.3,9.5s2.9-5.9,0.6-5.8c-2.3,0.2-6.9,12.9-6.9,12.9
						C344.1,348.6,345.4,350.4,347.3,351.7z" style="fill:#fff"></path>
            <path d="M347.3,352c-0.1,0-0.1,0-0.2-0.1c-1.9-1.3-3.2-3-4.2-5.5c0-0.1,0-0.1,0-0.2c0.8-2.2,4.7-13,7.1-13.1
						c0.6,0,0.9,0.2,1,0.4c0.5,0.8,0,2.5-0.5,3.9c2.4-2.7,7.3-8.1,9.5-8.3c0.4,0,0.7,0,0.9,0.2c0.2,0.2,0.4,0.5,0.4,0.8
						c0,1.6-2.9,4.7-5.4,7.1c0.6-0.2,1.2-0.2,1.6,0.1c0.3,0.2,0.4,0.5,0.4,0.8c0,0.5-0.4,1-0.8,1.6c0.4-0.2,0.9-0.2,1.2-0.2
						c0.3,0.1,0.5,0.3,0.7,0.5c0.3,0.7-0.2,1.5-1,2.2c0.8-0.1,1.5-0.1,1.9,0.4c0.2,0.2,0.2,0.5,0,0.9
						C358.7,346.1,351.3,351.9,347.3,352C347.3,352,347.3,352,347.3,352z M343.6,346.4c0.9,2.2,2.1,3.9,3.8,5
						c3.6-0.2,10-5.1,11.7-7.5c0.4-0.6,0.3-0.7,0.3-0.7c-0.5-0.6-2.3,0.1-3.4,0.6c-0.1,0.1-0.2,0.1-0.3,0.2c-0.1,0.1-0.3,0-0.4-0.1
						c-0.1-0.1,0-0.3,0.1-0.4c0,0,0.2-0.1,0.3-0.2c1.4-0.8,3.1-2.1,2.8-2.8c-0.1-0.1-0.1-0.2-0.2-0.2c-0.6-0.2-2,0.7-3,1.4
						c-0.2,0.1-0.3,0.2-0.4,0.3c-0.1,0.1-0.3,0.1-0.4-0.1c-0.1-0.1-0.1-0.3,0.1-0.4c0.1,0,0.2-0.1,0.4-0.3c1.1-0.8,2.5-2.2,2.5-2.9
						c0-0.1,0-0.2-0.1-0.3c-0.6-0.4-2.2,0.5-3.6,1.5c-0.6,0.5-1.1,0.9-1.2,1.1c-0.1,0.1-0.3,0.1-0.4,0c-0.1-0.1-0.1-0.3,0-0.4
						c0.2-0.2,0.7-0.6,1.3-1.1c2.9-2.5,7.5-6.9,7.5-8.6c0-0.2-0.1-0.3-0.2-0.4c-0.1-0.1-0.3-0.1-0.5-0.1c-2.3,0.2-8.3,7-10.4,9.6
						c-0.1,0.1-0.3,0.1-0.4,0.1c-0.1-0.1-0.2-0.2-0.1-0.4c0.8-1.6,1.8-4.4,1.3-5.1c-0.1-0.1-0.2-0.2-0.5-0.2
						C348.6,333.9,345.3,341.5,343.6,346.4z" style="fill:#3e414e"></path>
          </g>
          <g>
            <g>
              <path d="M289.8,415l6.3,157.1h-18.1l-14.1-112.8l-13,112.8h-19.2l4.9-160.1C236.7,412,254.8,421.5,289.8,415" style="fill:#9ec9ef"></path>
            </g>
            <g>
              <path d="M296,572.4h-18.1c-0.2,0-0.3-0.1-0.3-0.3l-13.7-110.3l-12.7,110.3c0,0.2-0.1,0.3-0.3,0.3h-19.2
							c-0.1,0-0.2,0-0.2-0.1c-0.1-0.1-0.1-0.1-0.1-0.2l4.9-160.1c0-0.1,0.1-0.2,0.1-0.3c0.1-0.1,0.2-0.1,0.3,0
							c0.2,0.1,18.4,9.4,52.9,3c0.1,0,0.2,0,0.2,0.1c0.1,0.1,0.1,0.1,0.1,0.2l6.3,157.1c0,0.1,0,0.2-0.1,0.2
							C296.2,572.4,296.1,572.4,296,572.4z M278.2,571.8h17.5l-6.2-156.4c-31.6,5.8-49.5-1.5-52.5-2.9l-4.9,159.3h18.6l12.9-112.5
							c0-0.2,0.1-0.3,0.3-0.3c0,0,0,0,0,0c0.2,0,0.3,0.1,0.3,0.3L278.2,571.8z" style="fill:#3e414e"></path>
            </g>
          </g>
          <g>
            <g>
              <rect width="14.5" height="12.7" x="233.9" y="572.1" style="fill:#fff"></rect>
              <path d="M248.4,585.1h-14.5c-0.2,0-0.3-0.1-0.3-0.3v-12.7c0-0.2,0.1-0.3,0.3-0.3h14.5c0.2,0,0.3,0.1,0.3,0.3v12.7
							C248.7,585,248.5,585.1,248.4,585.1z M234.2,584.5h13.9v-12.1h-13.9V584.5z" style="fill:#3e414e"></path>
            </g>
            <g>
              <path d="M262.6,596.7c-5.3-0.2-14.2-3.9-17.3-3.5c-2,0.3-8.2,0.4-12.3,0.4c-2,0-3.7-1.6-3.7-3.7
							c0-1.1,0.1-2.4,0.2-3.7c0.2-2.2,0.5-4.6,1.1-6.5c0.3-0.8,0.6-1.6,0.9-2.2c0.5-0.9,1.7-1.1,2.6-0.5c2.2,1.7,7,4.9,9.7,3.7
							c1.7-0.8,2.7-2.6,3.2-4.1c0.4-1.2,2-1.6,2.9-0.6c2.9,2.9,8.1,7.6,12.1,8.6c6,1.4,12.6,3.7,12.9,6.8
							C275.3,594.6,267.9,596.9,262.6,596.7z" style="fill:#fff"></path>
              <path d="M263.2,597c-0.2,0-0.4,0-0.6,0l0,0c-2.7-0.1-6.4-1.1-9.6-2c-3.2-0.9-6.2-1.7-7.6-1.5
							c-2,0.3-8,0.4-12.3,0.4c0,0,0,0-0.1,0c-1.1,0-2-0.4-2.8-1.2c-0.8-0.8-1.2-1.8-1.1-2.8c0-1.3,0.1-2.6,0.2-3.8
							c0.2-2.7,0.6-4.9,1.2-6.6c0.3-0.9,0.6-1.6,1-2.2c0.3-0.5,0.8-0.9,1.4-1c0.6-0.1,1.2,0,1.6,0.4c2,1.5,6.8,4.8,9.4,3.6
							c1.7-0.8,2.6-2.6,3.1-3.9c0.2-0.7,0.8-1.2,1.4-1.3c0.7-0.2,1.4,0,1.9,0.6c2.7,2.8,7.9,7.6,12,8.5c8.6,2.1,12.9,4.4,13.2,7.1
							c0.1,0.7-0.2,1.5-0.9,2.2C272.4,595.8,267.1,597,263.2,597z M245.8,592.9c1.7,0,4.3,0.7,7.3,1.5c3.2,0.9,6.8,1.9,9.5,2
							c0,0,0,0,0,0c3.9,0.1,9.4-1.1,11.4-3.3c0.5-0.6,0.8-1.1,0.7-1.7c-0.2-2.4-4.5-4.6-12.7-6.6c-4.2-1-9.5-5.9-12.3-8.7
							c-0.4-0.4-0.9-0.5-1.4-0.4c-0.5,0.1-0.9,0.5-1,0.9c-0.7,2.1-1.9,3.6-3.4,4.3c-2.8,1.3-7.4-1.8-10-3.7
							c-0.3-0.2-0.8-0.3-1.1-0.3c-0.4,0.1-0.8,0.3-1,0.7c-0.3,0.6-0.6,1.2-0.9,2.1c-0.5,1.7-0.9,3.9-1.1,6.5
							c-0.1,1.2-0.2,2.4-0.2,3.7c0,0.9,0.3,1.8,1,2.4c0.6,0.6,1.5,1,2.4,1c2.5,0,10-0.2,12.2-0.4
							C245.4,592.9,245.6,592.9,245.8,592.9z" style="fill:#3e414e"></path>
            </g>
            <g>
              <path d="M262.5,591.6C262.5,591.6,262.5,591.6,262.5,591.6l-26.7-3.7c-0.2,0-0.3-0.2-0.3-0.3
							c0-0.2,0.2-0.3,0.3-0.3l26.6,3.7c0.2,0,0.3,0.2,0.3,0.3C262.8,591.5,262.7,591.6,262.5,591.6z" style="fill:#3e414e"></path>
            </g>
            <g>
              <path d="M268.8,596c-4.3-5-1-8.7-0.2-9.5" style="fill:#fff"></path>
              <path d="M268.8,596.3c-0.1,0-0.2,0-0.2-0.1c-4.5-5.2-0.9-9.2-0.2-9.9c0.1-0.1,0.3-0.1,0.4,0
							c0.1,0.1,0.1,0.3,0,0.4c-1,1-3.8,4.4,0.2,9.1c0.1,0.1,0.1,0.3,0,0.4C268.9,596.3,268.9,596.3,268.8,596.3z" style="fill:#3e414e"></path>
            </g>
            <g>
              <path d="M233.5,583c0,1.8-1.5,3.3-3.3,3.3c-0.2,0-0.4,0-0.6-0.1c0.2-2.2,0.5-4.6,1.1-6.5
							C232.3,580,233.5,581.4,233.5,583z" style="fill:#3c4150"></path>
            </g>
          </g>
          <g>
            <g>
              <rect width="14.5" height="12.7" x="279.5" y="572.1" style="fill:#fff"></rect>
              <path d="M294,585.1h-14.5c-0.2,0-0.3-0.1-0.3-0.3v-12.7c0-0.2,0.1-0.3,0.3-0.3H294c0.2,0,0.3,0.1,0.3,0.3v12.7
							C294.4,585,294.2,585.1,294,585.1z M279.8,584.5h13.9v-12.1h-13.9V584.5z" style="fill:#3e414e"></path>
            </g>
            <g>
              <path d="M308.3,596.7c-5.3-0.2-14.2-3.9-17.3-3.5c-2,0.3-8.2,0.4-12.3,0.4c-2,0-3.7-1.6-3.7-3.7
							c0-1.1,0.1-2.4,0.2-3.7c0.2-2.2,0.5-4.6,1.1-6.5c0.3-0.8,0.6-1.6,0.9-2.2c0.5-0.9,1.7-1.1,2.6-0.5c2.2,1.7,7,4.9,9.7,3.7
							c1.7-0.8,2.7-2.6,3.2-4.1c0.4-1.2,2-1.6,2.9-0.6c2.9,2.9,8.1,7.6,12.1,8.6c6,1.4,12.6,3.7,12.9,6.8
							C321,594.6,313.6,596.9,308.3,596.7z" style="fill:#fff"></path>
              <path d="M308.9,597c-0.2,0-0.4,0-0.6,0l0,0c-2.7-0.1-6.4-1.1-9.6-2c-3.2-0.9-6.2-1.7-7.6-1.5
							c-2,0.3-8,0.4-12.3,0.4c-1.1,0-2.1-0.4-2.9-1.2c-0.8-0.8-1.2-1.8-1.1-2.8c0-1.3,0.1-2.6,0.2-3.8c0.2-2.7,0.6-4.9,1.2-6.6
							c0.3-0.9,0.6-1.6,1-2.2c0.3-0.5,0.8-0.9,1.4-1c0.6-0.1,1.2,0,1.6,0.4c2,1.5,6.8,4.8,9.4,3.6c1.7-0.8,2.6-2.6,3.1-3.9
							c0.2-0.7,0.8-1.2,1.4-1.3c0.7-0.2,1.4,0,1.9,0.6c2.7,2.8,7.9,7.6,12,8.5c8.6,2.1,12.9,4.4,13.2,7.1c0.1,0.7-0.2,1.5-0.9,2.2
							C318,595.8,312.8,597,308.9,597z M291.5,592.9c1.7,0,4.3,0.7,7.3,1.5c3.2,0.9,6.8,1.9,9.5,2c0,0,0,0,0,0
							c3.9,0.1,9.4-1.1,11.4-3.3c0.5-0.6,0.8-1.1,0.7-1.7c-0.2-2.4-4.5-4.6-12.7-6.6c-4.2-1-9.5-5.9-12.3-8.7
							c-0.4-0.4-0.9-0.5-1.4-0.4c-0.5,0.1-0.9,0.5-1,0.9c-0.7,2.1-1.9,3.6-3.4,4.3c-2.8,1.3-7.4-1.8-10-3.7
							c-0.3-0.2-0.7-0.3-1.1-0.3c-0.4,0.1-0.8,0.3-1,0.7c-0.3,0.6-0.6,1.2-0.9,2.1c-0.5,1.7-0.9,3.9-1.1,6.5
							c-0.1,1.1-0.2,2.4-0.2,3.7c0,0.9,0.3,1.8,1,2.4c0.6,0.6,1.5,1,2.4,1c2.5,0,10-0.2,12.2-0.4
							C291.1,592.9,291.3,592.9,291.5,592.9z" style="fill:#3e414e"></path>
            </g>
            <g>
              <path d="M308.2,591.6C308.2,591.6,308.2,591.6,308.2,591.6l-26.7-3.7c-0.2,0-0.3-0.2-0.3-0.3
							c0-0.2,0.2-0.3,0.3-0.3l26.6,3.7c0.2,0,0.3,0.2,0.3,0.3C308.5,591.5,308.3,591.6,308.2,591.6z" style="fill:#3e414e"></path>
            </g>
            <g>
              <path d="M314.5,596c-4.3-5-1-8.7-0.2-9.5" style="fill:#fff"></path>
              <path d="M314.5,596.3c-0.1,0-0.2,0-0.2-0.1c-4.5-5.2-0.9-9.2-0.2-9.9c0.1-0.1,0.3-0.1,0.4,0
							c0.1,0.1,0.1,0.3,0,0.4c-1,1-3.8,4.4,0.2,9.1c0.1,0.1,0.1,0.3,0,0.4C314.6,596.3,314.5,596.3,314.5,596.3z" style="fill:#3e414e"></path>
            </g>
            <g>
              <path d="M279.2,583c0,1.8-1.5,3.3-3.3,3.3c-0.2,0-0.4,0-0.6-0.1c0.2-2.2,0.5-4.6,1.1-6.5
							C278,580,279.2,581.4,279.2,583z" style="fill:#3c4150"></path>
            </g>
          </g>
          <g>
            <path d="M237.7,388.2l9,5.5c0.3,4.6-1.5,8.7-4.9,12.5c-1.6-0.3-3.2-0.7-4.7-1.1c-14.8-4-28.5-12.9-37.7-20
						c-7.7-5.9-9-17-2.8-24.4c13.9-16.9,37.9-35,46.1-36.5c5.8-1,21.9-0.7,21.9-0.7s21.6,4.9,25.7,8.3c4.2,3.5,27.1,41.5,27.1,41.5
						l24.6-28.7c3.7,1.8,6.7,4.4,8.8,8.1c0,0-25.7,45-29.9,45.7c-4.2,0.7-30.1-26.2-30.1-26.2l1.7,38.9c0.1,2-1.3,3.7-3.3,4
						c-9.2,1.5-34.9,4.7-52.3-2.9c-1.5-0.6-2.4-2.1-2.4-3.7l0.1-4.2" style="fill:#fff"></path>
            <path d="M265.5,417.4c-9.7,0-20.2-1.1-28.8-4.9c-1.6-0.7-2.6-2.3-2.6-4l0.1-3.9c-13.9-4.4-26.6-12.8-35-19.3
						c-3.8-2.9-6.2-7.1-6.7-11.9c-0.5-4.7,0.8-9.3,3.8-12.9c14.1-17.1,38-35.1,46.3-36.6c5.7-1,21.8-0.7,22-0.7
						c0.9,0.2,21.7,4.9,25.9,8.4c4,3.3,24.5,37.1,27,41.2l24.3-28.4c0.1-0.1,0.2-0.1,0.4-0.1c4,2,6.9,4.7,8.9,8.2
						c0.1,0.1,0.1,0.2,0,0.3c-2.6,4.6-25.9,45.1-30.1,45.8c-0.1,0-0.1,0-0.2,0c-4.4,0-25.3-21.2-29.6-25.7l1.7,38.1
						c0.1,2.1-1.4,4-3.5,4.4C284.1,416.2,275.2,417.4,265.5,417.4z M234.8,404.7l-0.1,3.8c0,1.5,0.8,2.8,2.2,3.4
						c17.1,7.5,42.2,4.5,52.2,2.9c1.8-0.3,3.1-1.9,3-3.7l-1.7-38.9c0-0.1,0.1-0.2,0.2-0.3c0.1-0.1,0.2,0,0.3,0.1
						c7.2,7.4,26.6,26.7,29.9,26.1c3.3-0.5,22.4-32.8,29.6-45.4c-1.9-3.3-4.6-5.9-8.4-7.7l-24.4,28.6c-0.1,0.1-0.2,0.1-0.3,0.1
						c-0.1,0-0.2-0.1-0.2-0.1c-0.2-0.4-23-38-27-41.4c-4.1-3.4-25.4-8.2-25.6-8.3c-0.1,0-2.2,0-5.2,0c-5.2,0-13,0.1-16.6,0.7
						c-8.1,1.4-31.8,19.3-45.9,36.4c-2.9,3.5-4.2,8-3.7,12.5c0.5,4.6,2.8,8.7,6.5,11.5c8.4,6.5,21.1,14.9,35,19.2c0,0,0,0,0,0
						c0.8,0.3,1.7,0.5,2.6,0.7c1.5,0.4,3.1,0.8,4.6,1.1c3.4-3.9,4.9-7.8,4.7-12l-8.9-5.5c-0.1-0.1-0.2-0.3-0.1-0.4
						c0.1-0.1,0.3-0.2,0.4-0.1l9,5.5c0.1,0.1,0.1,0.1,0.1,0.2c0.3,4.4-1.3,8.6-4.9,12.7c-0.1,0.1-0.2,0.1-0.3,0.1
						c-1.5-0.3-3.2-0.7-4.8-1.1C236.2,405.2,235.5,405,234.8,404.7z" style="fill:#3e414e"></path>
          </g>
          <g>
            <polyline points="237.7 370.3 237.7 388.2 217.5 375.8 213.3 373.1 230.4 354.5" style="fill:#fff"></polyline>
            <path d="M237.7,388.5c-0.1,0-0.1,0-0.2,0L217.4,376l-4.2-2.7c-0.1,0-0.1-0.1-0.1-0.2c0-0.1,0-0.2,0.1-0.2
						l17.1-18.7c0.1-0.1,0.3-0.1,0.4,0c0.1,0.1,0.1,0.3,0,0.4l-16.8,18.4l3.9,2.5l19.7,12.1v-17.3c0-0.2,0.1-0.3,0.3-0.3
						s0.3,0.1,0.3,0.3v17.9c0,0.1-0.1,0.2-0.2,0.3C237.8,388.5,237.7,388.5,237.7,388.5z" style="fill:#3e414e"></path>
          </g>
          <g>
            <path d="M246.7,395.5c4-0.1,10.9,0,11.6,1.5c1,2.1-5.5,1.7-5.5,1.7s13.9,4.3,13.1,6.8c-0.6,2.1-8.6-1.7-11.8-3.2
						c-0.1,0-0.1-0.1-0.2-0.1c-0.5-0.3-0.9-0.5-1-0.5" style="fill:#fff"></path>
            <path d="M264.7,406.4c-2.5,0-7.6-2.3-10.7-3.9l-0.2-0.1c-0.4-0.2-0.7-0.3-0.9-0.4l-0.1-0.1
						c-0.1-0.1-0.2-0.3-0.1-0.4s0.3-0.2,0.4-0.1l0.2,0.1c0.2,0.1,0.5,0.2,0.9,0.4l0.2,0.1c5.7,2.8,9.8,4.2,11.1,3.7
						c0.2-0.1,0.3-0.2,0.3-0.3c0-0.1,0-0.3-0.1-0.5c-1.1-2-9.6-5-12.8-6c-0.1,0-0.2-0.2-0.2-0.3s0.2-0.3,0.3-0.2
						c1.8,0.1,4.7,0,5.3-0.8c0.1-0.1,0.1-0.2,0-0.5c-0.4-0.7-3.5-1.5-11.4-1.4c-0.2,0-0.3-0.1-0.3-0.3c0-0.2,0.1-0.3,0.3-0.3
						c7.3-0.1,11.3,0.4,11.9,1.7c0.2,0.5,0.1,0.9,0,1.1c-0.5,0.8-2.3,1-3.8,1.1c3.4,1.1,10.2,3.7,11.3,5.7c0.2,0.3,0.2,0.6,0.1,0.9
						c-0.1,0.3-0.3,0.5-0.6,0.7C265.3,406.4,265,406.4,264.7,406.4z" style="fill:#3e414e"></path>
          </g>
          <g>
            <path d="M252.8,401.6C252.8,401.6,252.8,401.6,252.8,401.6C252.8,401.6,252.9,401.6,252.8,401.6L252.8,401.6
						c0.2,0.1,0.6,0.3,1.1,0.6c0.1,0,0.1,0.1,0.2,0.1c1.4,0.8,3.4,2.1,3.1,3.1c-0.4,1.3-3.3-0.2-4.3-0.8c0,0-0.1,0-0.1-0.1
						c0,0,0,0,0,0c0,0,0,0,0,0c0,0,0,0-0.1,0c0,0,0,0-0.1,0" style="fill:#fff"></path>
            <path d="M256.4,406.2c-1,0-2.5-0.7-3.7-1.4c0,0-0.1,0-0.1-0.1v0c0,0-0.1,0-0.1-0.1c0,0-0.1,0-0.1,0
						c-0.1-0.1-0.2-0.3-0.1-0.4c0.1-0.1,0.3-0.2,0.4-0.1c0,0,0.1,0.1,0.1,0.1c0,0,0,0,0,0c0,0,0,0,0,0c0,0,0.1,0,0.1,0.1
						c1.7,1,3.1,1.4,3.6,1.2c0.1,0,0.2-0.1,0.2-0.2c0.2-0.6-0.9-1.7-3-2.8c-0.1,0-0.1-0.1-0.2-0.1c-0.5-0.3-0.9-0.5-1-0.5
						c0,0,0,0,0,0c0,0-0.1,0-0.1-0.1c-0.1-0.1-0.1-0.3,0-0.4c0.1-0.1,0.3-0.1,0.4,0c0,0,0,0,0.1,0c0.1,0,0.5,0.2,1,0.5
						c0,0,0.1,0.1,0.2,0.1c2.4,1.3,3.5,2.5,3.3,3.5c-0.1,0.3-0.3,0.5-0.6,0.6C256.8,406.2,256.6,406.2,256.4,406.2z" style="fill:#3e414e"></path>
          </g>
          <g>
            <path d="M252.5,404.3C252.5,404.3,252.5,404.4,252.5,404.3c0.1,0,0.1,0.1,0.1,0.1c0,0,0,0,0.1,0c0,0,0,0,0.1,0
						c0,0,0,0,0,0c0,0,0,0,0,0c0,0,0.1,0,0.1,0.1c0.9,0.6,3.2,2.1,2.4,3c-0.9,0.9-3.4-0.9-4.1-1.5c0,0,0,0,0,0c0,0,0,0-0.1,0
						c0,0,0,0,0,0c0,0,0,0,0,0c0,0,0,0,0,0c0,0,0,0,0,0c0,0,0,0,0,0c0,0,0,0,0,0c0,0,0,0,0,0" style="fill:#fff"></path>
            <path d="M254.6,408.2c-1.1,0-2.6-1-3.6-1.8c0,0,0,0-0.1,0l0,0c0,0,0,0-0.1,0c0,0-0.1,0-0.1-0.1
						c0,0-0.1-0.1-0.1-0.1l0,0c-0.1-0.1,0-0.2,0-0.3c0.1-0.1,0.3-0.1,0.4,0c0,0,0,0,0,0c0,0,0,0,0,0l0,0c0,0,0.1,0,0.1,0.1
						c0,0,0,0,0,0c0,0,0,0,0,0c0,0,0,0,0,0c1.5,1.2,3.2,2.1,3.7,1.5c0.1-0.1,0.1-0.2,0.1-0.3c-0.1-0.5-1-1.4-2.4-2.3
						c0,0-0.1,0-0.1,0l0,0c0,0-0.1,0-0.1-0.1c0,0-0.1-0.1-0.1-0.1c0,0-0.1,0-0.1,0c-0.1-0.1-0.2-0.3-0.1-0.4
						c0.1-0.1,0.3-0.2,0.4-0.1c0,0,0,0,0.1,0c0,0,0.1,0,0.1,0.1c0,0,0,0,0,0c0,0,0,0,0,0h0c0,0,0,0,0.1,0c1,0.6,2.6,1.7,2.7,2.7
						c0,0.3,0,0.6-0.2,0.8C255.3,408.1,255,408.2,254.6,408.2z M251,405.9L251,405.9L251,405.9z" style="fill:#3e414e"></path>
          </g>
          <g>
            <path d="M250.9,405.9C250.9,405.9,250.9,405.9,250.9,405.9C251,405.9,251,405.9,250.9,405.9
						C251,406,251,406,250.9,405.9C251,406,251,406,250.9,405.9C251,406,251,406,250.9,405.9c0.1,0.1,0.1,0.1,0.1,0.1c0,0,0,0,0,0
						c0,0,0,0,0,0c0,0,0,0,0.1,0c0,0,0,0,0,0c0.7,0.6,2.6,2.3,2,3.3c-0.6,0.9-6.4-1.8-10-4.9" style="fill:#fff"></path>
            <path d="M252.7,409.9c-1.8,0-6.7-2.5-9.7-5.1c-0.1-0.1-0.1-0.3,0-0.4c0.1-0.1,0.3-0.1,0.4,0c3.7,3.1,9,5.4,9.6,4.9
						c0.4-0.6-0.7-1.9-1.9-2.9c0,0,0,0-0.1,0l0,0c0,0,0,0-0.1,0c0,0-0.1,0-0.1-0.1c0,0,0,0-0.1-0.1c0,0,0,0,0,0
						c-0.1-0.1-0.1-0.3,0-0.4c0.1-0.1,0.3-0.1,0.4,0l0,0l0,0c0,0,0,0,0,0c0,0,0,0,0,0c0,0,0,0,0,0l0,0c0,0,0.1,0,0.1,0.1
						c0,0,0,0,0,0c0,0,0,0,0,0c0,0,0,0,0,0c1.1,0.9,2.7,2.6,2,3.7c-0.1,0.1-0.2,0.3-0.5,0.3C252.8,409.9,252.7,409.9,252.7,409.9z
						 M251,405.9L251,405.9L251,405.9z" style="fill:#3e414e"></path>
          </g>
          <g>
            <path d="M265.5,311.2c19.9,5.6,21-22.9,17.3-23.9c-3.7-0.9-6.9-10.1-6.9-10.1s-6.6,10-16.2,11
						c-9.6,1-6.1,8.3-2.9,9.2v26l6.3,16.4l7.4-14.9v-13" style="fill:#fff"></path>
            <path d="M263.1,340.1C263.1,340.1,263.1,340.1,263.1,340.1c-0.1,0-0.2-0.1-0.3-0.2l-6.3-16.4c0,0,0-0.1,0-0.1
						v-25.8c-1.7-0.6-3.5-2.9-3.4-5.1c0.1-1.4,1.1-4,6.5-4.5c9.4-1,15.9-10.8,16-10.9c0.1-0.1,0.2-0.2,0.3-0.1
						c0.1,0,0.2,0.1,0.2,0.2c0,0.1,3.2,9,6.7,9.9c0.6,0.2,1.1,0.9,1.5,2.1c1.1,4.1,0.4,14-5.1,19.5c-2.3,2.3-5.1,3.5-8.4,3.6v12.7
						c0,0,0,0.1,0,0.1l-7.4,14.9C263.3,340.1,263.2,340.1,263.1,340.1z M257.2,323.4l6,15.7l7.1-14.2v-12.6c-1.5,0-3.1-0.3-4.7-0.7
						c-0.2,0-0.3-0.2-0.2-0.4c0-0.2,0.2-0.3,0.4-0.2c1.7,0.5,3.3,0.7,4.8,0.7c0,0,0,0,0,0c0,0,0.1,0,0.1,0c3.2,0,6-1.2,8.2-3.4
						c5.3-5.3,6.1-15,5-18.9c-0.3-1-0.6-1.6-1-1.7c-3.3-0.8-6.1-7.7-6.9-9.8c-1.5,2-7.6,9.8-16.1,10.7c-3.7,0.4-5.8,1.8-6,4
						c-0.1,2.1,1.6,4.2,3.1,4.6c0.1,0,0.2,0.2,0.2,0.3V323.4z" style="fill:#3e414e"></path>
          </g>
          <g>
            <path d="M278.6,289.1h-3.1c-0.2,0-0.3-0.1-0.3-0.3s0.1-0.3,0.3-0.3h3.1c0.2,0,0.3,0.1,0.3,0.3
						S278.8,289.1,278.6,289.1z" style="fill:#3e414e"></path>
          </g>
          <g>
            <path d="M267.3,289.5c-0.1,0-0.1,0-0.2-0.1c-1-0.7-2.4,0-2.4,0c-0.1,0.1-0.3,0-0.4-0.1c-0.1-0.1,0-0.3,0.1-0.4
						c0.1,0,1.7-0.9,3,0c0.1,0.1,0.2,0.3,0.1,0.4C267.5,289.4,267.4,289.5,267.3,289.5z" style="fill:#3e414e"></path>
          </g>
          <g>
            <circle cx="277.4" cy="293.4" r="1.1" style="fill:#3c4150"></circle>
          </g>
          <g>
            <circle cx="265.9" cy="292.8" r="1.1" style="fill:#3c4150"></circle>
          </g>
          <g>
            <path d="M271.8,300.1c-0.1,0-0.1,0-0.2,0l-2.5-1.6c-0.1-0.1-0.2-0.3-0.1-0.4c0.1-0.1,0.3-0.2,0.4-0.1l2,1.3V292
						c0-0.2,0.1-0.3,0.3-0.3s0.3,0.1,0.3,0.3v7.7c0,0.1-0.1,0.2-0.2,0.3C271.9,300.1,271.9,300.1,271.8,300.1z" style="fill:#3e414e"></path>
          </g>
          <g>
            <path d="M271.9,304.8c-2.3,0-3.4-1.4-3.4-1.5c-0.1-0.1-0.1-0.3,0.1-0.4c0.1-0.1,0.3-0.1,0.4,0.1
						c0.1,0.1,1.5,1.9,4.6,1c0.2,0,0.3,0,0.4,0.2c0,0.2,0,0.3-0.2,0.4C273,304.7,272.4,304.8,271.9,304.8z" style="fill:#3e414e"></path>
          </g>
          <g>
            <path d="M227.6,332.2c0,0,5.2,8.2,1.5,10.6s-23.3,14.2-21.4,18.5c1.9,4.3-5.4,10.9-4.1,12.2
						c1.4,1.4,24.1,20.4,25.5,21.9c1.4,1.6-2.9,5.8-2.9,5.8s-19.9-9.3-26.9-16.2c-7-6.9-7.8-11.3-5.4-20.2S224.5,333.4,227.6,332.2z
						" style="fill:#f4f4f4"></path>
          </g>
          <g>
            <path d="M226.2,401.6c0,0-0.1,0-0.1,0c-0.2-0.1-20-9.4-26.9-16.3c-6.8-6.7-8-11.1-5.5-20.5
						c2.4-9,30.6-31.6,33.8-32.8c0.2-0.1,0.3,0,0.4,0.2c0.1,0.2,0,0.3-0.2,0.4c-3.2,1.2-31.1,23.6-33.5,32.4
						c-2.3,8.6-1.9,12.9,5.3,19.9c6.9,6.8,26.6,16,26.8,16.1c0.2,0.1,0.2,0.3,0.1,0.4C226.4,401.5,226.3,401.6,226.2,401.6z" style="fill:#3e414e"></path>
          </g>
          <g>
            <path d="M289.8,415c0,0-10.6,1.9-15.8,2s1.9,17.9,6.2,19.4s9.5,6.6,0.8,9.5c-8.7,2.9-7.4,24.5-2.9,26.8
						c4.5,2.3,10.3,20,6.4,24.3c-3.9,4.3-7.6,33.2-3.5,36.4c4.1,3.1,7.7,22.6,5.8,23.9s-8.8,14.7-8.8,14.7H296L289.8,415z" style="fill:#77b6e5"></path>
          </g>
          <g>
            <path d="M236.7,412l-4.9,160.1h10.5c0,0,0.1-21.1-1.1-24.2c-1.2-3.1,0.9-24.6,2.9-27s0.5-34.5,0-37.6
						c-0.5-3.1,2.6-35,5.7-37.3s-1.4-30.5-1.4-30.5S240.4,413.9,236.7,412z" style="fill:#77b6e5"></path>
          </g>
          <g>
            <path d="M296,572.4h-18.1c-0.2,0-0.3-0.1-0.3-0.3s0.1-0.3,0.3-0.3h17.8l-6.2-156.5c-1.9,0.3-10.9,1.9-15.5,2
						c-0.2,0-0.3-0.1-0.3-0.3c0-0.2,0.1-0.3,0.3-0.3c5.1-0.1,15.6-2,15.7-2c0.1,0,0.2,0,0.2,0.1s0.1,0.1,0.1,0.2l6.3,157.1
						c0,0.1,0,0.2-0.1,0.2C296.2,572.4,296.1,572.4,296,572.4z" style="fill:#3e414e"></path>
          </g>
          <g>
            <path d="M241.9,572.4c-3.5,0-6.4,0-9.8,0c-0.1,0-0.3,0-0.4,0c0,0,0,0,0,0c-0.1,0-0.1,0-0.2-0.1c0,0,0,0,0,0
						c0,0,0,0,0,0c0,0,0,0,0,0c0,0,0,0,0,0c0,0,0,0,0,0l0,0c0,0,0,0,0,0c0,0,0,0,0,0c0-0.1-0.1-0.1-0.1-0.2c0,0,0,0,0,0
						c1-18.9,1.4-38.1,1.8-56.7c0.3-13.5,0.6-27.5,1.1-41.2c0.3-11,0.7-22.2,1.1-33c0.3-9.7,0.7-19.4,1-29.1c0-0.1,0.1-0.2,0.1-0.3
						c0.1-0.1,0.2-0.1,0.3,0c3.3,1.6,6.9,2.4,10.4,3.2l1.3,0.3c0.2,0,0.3,0.2,0.2,0.4c0,0.2-0.2,0.3-0.4,0.2l-1.3-0.3
						c-3.4-0.7-6.9-1.5-10.1-3c-0.3,9.6-0.6,19.1-0.9,28.7c-0.4,10.8-0.7,22-1.1,33c-0.5,13.7-0.8,27.7-1.1,41.1
						c-0.4,18.5-0.8,37.6-1.8,56.4c0.3,0,0.6,0,0.9,0c0,0,0.1,0,0.1,0c3,0,5.7,0,8.8,0c0.2,0,0.3,0.1,0.3,0.3
						S242.1,572.4,241.9,572.4z" style="fill:#3e414e"></path>
          </g>
          <g>
            <path d="M291.2,384.2c0,0-12.2,29.5-18.4,29.4c-23-0.6-38.4-9.2-38.4-9.2l-0.1,4.2c0,0,0.1,2.7,2.3,3.7
						s11.5,3.9,19.9,4.7c8.4,0.8,23.4,0.2,32.5-1.7c0,0,4.7,0.2,3.4-10.1L291.2,384.2z" style="fill:#f4f4f4"></path>
          </g>
          <g>
            <path d="M265.4,417.5c-3.3,0-6.3-0.1-8.7-0.3c-8.4-0.8-17.6-3.7-20-4.7c-2.4-1-2.5-3.8-2.5-3.9l0.1-4.2
						c0-0.2,0.1-0.3,0.3-0.3c0.2,0,0.3,0.1,0.3,0.3l-0.1,4.2c0,0,0.1,2.5,2.1,3.4c2.4,1,11.5,3.9,19.9,4.6
						c8.3,0.8,23.3,0.3,32.4-1.7c0,0,0.1,0,0.1,0c0.1,0,0.9,0,1.8-0.9c1-1.1,1.9-3.4,1.2-8.8l-1.3-20.8c0-0.2,0.1-0.3,0.3-0.3
						c0.2,0,0.3,0.1,0.3,0.3l1.2,20.8c0.6,4.5,0.1,7.7-1.4,9.3c-0.9,1-2,1.1-2.2,1.1C282.7,416.8,273.2,417.5,265.4,417.5z" style="fill:#3e414e"></path>
          </g>
        </g>
      </g>
      <g>
        <g>
          <ellipse cx="478.6" cy="584.1" rx="107" ry="12.5" style="fill:#f4f4f4"></ellipse>
        </g>
        <g>
          <g>
            <path d="M403.7,587.9h140c12.8,0,23.3-10.4,23.3-23.3V282.4c0-12.8-10.4-23.3-23.3-23.3h-140
						c-12.8,0-23.3,10.4-23.3,23.3v282.3C380.5,577.5,390.9,587.9,403.7,587.9z" style="fill:#fff"></path>
            <path d="M543.7,588.2h-140c-13,0-23.6-10.6-23.6-23.6V282.4c0-13,10.6-23.6,23.6-23.6h140
						c13,0,23.6,10.6,23.6,23.6v282.3C567.3,577.7,556.7,588.2,543.7,588.2z M403.7,259.4c-12.7,0-22.9,10.3-22.9,22.9v282.3
						c0,12.7,10.3,22.9,22.9,22.9h140c12.7,0,22.9-10.3,22.9-22.9V282.4c0-12.7-10.3-22.9-22.9-22.9H403.7z" style="fill:#3e414e"></path>
          </g>
          <g>
            <g>
              <path d="M565,259.1h-12.1c7.8,0,14.1,6.3,14.1,14.1v300.7c0,7.8-6.3,14.1-14.1,14.1H565c7.8,0,14.1-6.3,14.1-14.1
							V273.2C579,265.4,572.7,259.1,565,259.1z" style="fill:#9ec9ef"></path>
            </g>
            <g>
              <path d="M565,588.2h-12.1c-0.2,0-0.3-0.1-0.3-0.3s0.1-0.3,0.3-0.3c7.6,0,13.8-6.2,13.8-13.8V273.2
							c0-7.6-6.2-13.8-13.8-13.8c-0.2,0-0.3-0.1-0.3-0.3s0.1-0.3,0.3-0.3H565c7.9,0,14.4,6.4,14.4,14.4v300.7
							C579.3,581.8,572.9,588.2,565,588.2z M557,587.6h8c7.6,0,13.8-6.2,13.8-13.8V273.2c0-7.6-6.2-13.8-13.8-13.8h-8
							c5.9,1.8,10.2,7.3,10.2,13.8v300.7C567.2,580.3,562.9,585.8,557,587.6z" style="fill:#3e414e"></path>
            </g>
          </g>
          <g>
            <path d="M574.8,573.9V273.2c0-7.8-6.3-14.1-14.1-14.1h4.2c7.8,0,14.1,6.3,14.1,14.1v300.7
						c0,7.8-6.3,14.1-14.1,14.1h-4.2C568.5,587.9,574.8,581.6,574.8,573.9z" style="fill:#77b6e5"></path>
          </g>
          <g>
            <path d="M565,588.2h-4.2c-0.2,0-0.3-0.1-0.3-0.3s0.1-0.3,0.3-0.3h4.2c7.6,0,13.8-6.2,13.8-13.8V273.2
						c0-7.6-6.2-13.8-13.8-13.8h-4.2c-0.2,0-0.3-0.1-0.3-0.3s0.1-0.3,0.3-0.3h4.2c7.9,0,14.4,6.4,14.4,14.4v300.7
						C579.3,581.8,572.9,588.2,565,588.2z" style="fill:#3e414e"></path>
          </g>
          <g>
            <path d="M548.8,580.4H398.6c-5.8,0-10.6-4.7-10.6-10.6V292.2c0-5.8,4.7-10.6,10.6-10.6h150.2
						c5.8,0,10.6,4.7,10.6,10.6v277.6C559.4,575.6,554.7,580.4,548.8,580.4z M398.6,282.2c-5.5,0-9.9,4.5-9.9,9.9v277.6
						c0,5.5,4.5,9.9,9.9,9.9h150.2c5.5,0,9.9-4.5,9.9-9.9V292.2c0-5.5-4.5-9.9-9.9-9.9H398.6z" style="fill:#3e414e"></path>
          </g>
          <g>
            <g>
              <path d="M552.3,294.7h-8.6c-0.2,0-0.3-0.1-0.3-0.3s0.1-0.3,0.3-0.3h8.6c0.2,0,0.3,0.1,0.3,0.3
							S552.4,294.7,552.3,294.7z" style="fill:#3e414e"></path>
            </g>
            <g>
              <path d="M552.3,298.6h-8.6c-0.2,0-0.3-0.1-0.3-0.3s0.1-0.3,0.3-0.3h8.6c0.2,0,0.3,0.1,0.3,0.3
							S552.4,298.6,552.3,298.6z" style="fill:#3e414e"></path>
            </g>
            <g>
              <path d="M552.3,302.5h-8.6c-0.2,0-0.3-0.1-0.3-0.3s0.1-0.3,0.3-0.3h8.6c0.2,0,0.3,0.1,0.3,0.3
							S552.4,302.5,552.3,302.5z" style="fill:#3e414e"></path>
            </g>
            <g>
              <g>
                <circle cx="399.5" cy="298.3" r="4.3" style="fill:#e1e4e1"></circle>
                <path d="M399.5,302.9c-2.5,0-4.6-2.1-4.6-4.6s2.1-4.6,4.6-4.6s4.6,2.1,4.6,4.6S402,302.9,399.5,302.9z
								 M399.5,294.3c-2.2,0-4,1.8-4,4s1.8,4,4,4s4-1.8,4-4S401.7,294.3,399.5,294.3z" style="fill:#3e414e"></path>
              </g>
              <g>
                <path d="M401,300.1c-0.1,0-0.2,0-0.2-0.1l-2.9-2.9c-0.1-0.1-0.1-0.3,0-0.4c0.1-0.1,0.3-0.1,0.4,0l2.9,2.9
								c0.1,0.1,0.1,0.3,0,0.4C401.1,300,401,300.1,401,300.1z" style="fill:#3e414e"></path>
              </g>
              <g>
                <path d="M398,300.1c-0.1,0-0.2,0-0.2-0.1c-0.1-0.1-0.1-0.3,0-0.4l2.9-2.9c0.1-0.1,0.3-0.1,0.4,0s0.1,0.3,0,0.4
								l-2.9,2.9C398.2,300,398.1,300.1,398,300.1z" style="fill:#3e414e"></path>
              </g>
            </g>
          </g>
          <g>
            <g>
              <path d="M503.3,266.7h-47.8c-1.5,0-2.7,1.2-2.7,2.7l0,0c0,1.5,1.2,2.7,2.7,2.7h47.8c1.5,0,2.7-1.2,2.7-2.7l0,0
							C505.9,267.9,504.8,266.7,503.3,266.7z" style="fill:#e1e4e1"></path>
              <path d="M503.3,272.3h-47.8c-1.6,0-3-1.3-3-3s1.3-3,3-3h47.8c1.6,0,3,1.3,3,3S504.9,272.3,503.3,272.3z
							 M455.5,267c-1.3,0-2.4,1.1-2.4,2.4s1.1,2.4,2.4,2.4h47.8c1.3,0,2.4-1.1,2.4-2.4s-1.1-2.4-2.4-2.4H455.5z" style="fill:#3e414e"></path>
            </g>
            <g>
              <circle cx="444.2" cy="269.3" r="2.7" style="fill:#e1e4e1"></circle>
              <path d="M444.2,272.3c-1.6,0-3-1.3-3-3s1.3-3,3-3s3,1.3,3,3S445.8,272.3,444.2,272.3z M444.2,267
							c-1.3,0-2.4,1.1-2.4,2.4s1.1,2.4,2.4,2.4s2.4-1.1,2.4-2.4S445.5,267,444.2,267z" style="fill:#3e414e"></path>
            </g>
          </g>
        </g>
      </g>
      <g>
        <g>
          <ellipse cx="629.9" cy="590.7" rx="21.5" ry="3.6" style="fill:#f4f4f4"></ellipse>
        </g>
        <g>
          <g>
            <path d="M628.2,559.8c0-0.3-1.1-33.2-6.5-38.4c-5.3-5.1-11.3-0.2-11.5,0l-0.4-0.5c0.1-0.1,6.7-5.5,12.4,0
						c5.5,5.4,6.6,37.4,6.7,38.8L628.2,559.8z" style="fill:#2d323d"></path>
          </g>
          <g>
            <path d="M628.7,566.2c0-0.4-3.6-39.3,10.6-55.6l0.5,0.4c-14,16.1-10.5,54.8-10.4,55.2L628.7,566.2z" style="fill:#2d323d"></path>
          </g>
          <g>
            <path d="M627.9,562.1l-0.6,0c0-0.4,2.8-44.4-7.7-54l0.4-0.4C630.7,517.4,628,560.3,627.9,562.1z" style="fill:#2d323d"></path>
          </g>
          <g>
            <path d="M629.3,562.1l-0.6,0c0-1.2,0.3-29.6,8.4-34.2c1.8-1,3.5-1.2,5.1-0.5c4.8,2,7.2,10.6,7.3,11l-0.6,0.2
						c0-0.1-2.4-8.7-7-10.6c-1.5-0.6-3-0.4-4.6,0.5C629.6,532.9,629.3,561.8,629.3,562.1z" style="fill:#2d323d"></path>
          </g>
          <g>
            <path d="M626.1,562.1l-0.6,0c0-0.2,1.2-22.5-4.8-30.4c-1.5-1.9-3.1-2.9-4.8-2.7c-4,0.3-7.3,6.1-7.4,6.1l-0.5-0.3
						c0.1-0.3,3.5-6.1,7.8-6.4c1.9-0.1,3.7,0.9,5.3,3C627.3,539.4,626.2,561.2,626.1,562.1z" style="fill:#2d323d"></path>
          </g>
          <g>
            <path d="M627.7,565.1c-0.2-2.2-3.9-52.9,2.7-61.8l0.5,0.4c-6.5,8.7-2.6,60.9-2.6,61.4L627.7,565.1z" style="fill:#2d323d"></path>
          </g>
          <g>
            <path d="M644,532.4c0,0-4,1.5-2.8,4.9c1.2,3.5,13.7,9.1,13.7,9.1s5.3-4.8,0.4-12.6C650.5,526,644.1,530,644,532.4
						z" style="fill:#007cff"></path>
          </g>
          <g>
            <g>
              <path d="M644,532.4c0,0-4,1.5-2.8,4.9c1.2,3.5,13.7,9.1,13.7,9.1s5.3-4.8,0.4-12.6C650.5,526,644.1,530,644,532.4
							z" style="fill:#9ec9ef"></path>
            </g>
            <g>
              <path d="M654.9,546.8c0,0-0.1,0-0.1,0c-0.5-0.2-12.7-5.8-13.9-9.3c-1.1-3.2,2-4.9,2.8-5.2
							c0.2-1.3,1.7-2.6,3.5-3.1c1.4-0.4,5.2-0.7,8.4,4.6c4.9,8-0.4,13-0.5,13C655.1,546.8,655,546.8,654.9,546.8z M648.7,529.5
							c-0.5,0-1,0.1-1.3,0.2c-1.8,0.5-3,1.8-3.1,2.8c0,0.1-0.1,0.2-0.2,0.3c-0.2,0.1-3.7,1.4-2.6,4.5c1,3.1,11.8,8.1,13.4,8.9
							c0.8-0.8,4.5-5.2,0.2-12.1C652.8,530.3,650.3,529.5,648.7,529.5z M644,532.4L644,532.4L644,532.4z" style="fill:#3e414e"></path>
            </g>
          </g>
          <g>
            <path d="M626.7,525.9c0,0,4.2-0.2,4.5,3.5c0.2,3.6-9.2,13.7-9.2,13.7s-6.7-2.4-5.3-11.5
						C618.2,522.5,625.7,523.6,626.7,525.9z" style="fill:#007cff"></path>
          </g>
          <g>
            <g>
              <path d="M626.7,525.9c0,0,4.2-0.2,4.5,3.5c0.2,3.6-9.2,13.7-9.2,13.7s-6.7-2.4-5.3-11.5
							C618.2,522.5,625.7,523.6,626.7,525.9z" style="fill:#9ec9ef"></path>
            </g>
            <g>
              <path d="M622,543.3c0,0-0.1,0-0.1,0c-0.1,0-6.9-2.6-5.5-11.8c1-6.1,4.5-7.2,6-7.5c1.9-0.3,3.8,0.4,4.4,1.5
							c0.9,0,4.4,0.3,4.6,3.7c0.2,3.7-8.8,13.5-9.2,13.9C622.2,543.3,622.1,543.3,622,543.3z M623.3,524.6c-0.2,0-0.5,0-0.7,0.1
							c-1.3,0.2-4.6,1.2-5.5,7c-1.3,8,3.8,10.6,4.9,11.1c1.2-1.3,9.1-10.1,8.9-13.3c-0.2-3.3-4-3.2-4.2-3.2c-0.1,0-0.2-0.1-0.3-0.2
							C626.1,525.2,624.8,524.6,623.3,524.6z" style="fill:#3e414e"></path>
            </g>
          </g>
          <g>
            <path d="M623.2,508.4c0,0,2.8-0.3,2.6-2c-0.2-1.7-11-6.1-17.3,1c0,0,4.1,7,9.9,7
						C624.2,514.6,623.2,508.4,623.2,508.4z" style="fill:#007cff"></path>
          </g>
          <g>
            <g>
              <path d="M623.2,508.4c0,0,2.8-0.3,2.6-2c-0.2-1.7-11-6.1-17.3,1c0,0,4.1,7,9.9,7
							C624.2,514.6,623.2,508.4,623.2,508.4z" style="fill:#9ec9ef"></path>
            </g>
            <g>
              <path d="M618.5,514.8c0,0-0.1,0-0.1,0c-6-0.1-10-6.9-10.2-7.2c-0.1-0.1-0.1-0.3,0-0.4c4.9-5.6,11.9-4,13.9-3.4
							c1.8,0.5,3.8,1.6,3.9,2.5c0.1,0.5-0.1,0.9-0.3,1.2c-0.6,0.7-1.7,1-2.2,1.1c0.1,0.8,0.2,3-1.1,4.6
							C621.5,514.3,620.2,514.8,618.5,514.8z M608.8,507.5c0.7,1.1,4.5,6.6,9.5,6.7c1.5,0,2.8-0.4,3.5-1.3c1.4-1.7,1-4.3,1-4.4
							c0-0.1,0-0.2,0.1-0.2c0.1-0.1,0.1-0.1,0.2-0.1c0,0,1.5-0.2,2.1-0.9c0.2-0.2,0.2-0.5,0.2-0.8c-0.1-0.4-1.3-1.3-3.5-2
							C620.1,503.9,613.5,502.4,608.8,507.5z" style="fill:#3e414e"></path>
            </g>
          </g>
          <g>
            <path d="M628.4,504.3c0,0-2.6,1.2-3.3-0.3c-0.7-1.6,6.1-11,15.2-8.3c0,0,0.2,8-4.7,11.2
						C630.7,510,628.4,504.3,628.4,504.3z" style="fill:#007cff"></path>
          </g>
          <g>
            <g>
              <path d="M628.4,504.3c0,0-2.6,1.2-3.3-0.3c-0.7-1.6,6.1-11,15.2-8.3c0,0,0.2,8-4.7,11.2
							C630.7,510,628.4,504.3,628.4,504.3z" style="fill:#9ec9ef"></path>
            </g>
            <g>
              <path d="M632.8,508.1c-0.4,0-0.8-0.1-1.2-0.2c-1.9-0.6-3-2.5-3.4-3.3c-0.5,0.2-1.6,0.6-2.5,0.2
							c-0.4-0.2-0.7-0.4-0.9-0.9c-0.4-0.9,0.8-2.8,2-4.2c1.4-1.6,6.5-6.6,13.6-4.5c0.1,0,0.2,0.2,0.2,0.3c0,0.3,0.2,8.3-4.8,11.5
							C634.8,507.8,633.8,508.1,632.8,508.1z M628.4,504c0,0,0.1,0,0.1,0c0.1,0,0.1,0.1,0.2,0.2c0,0,1.1,2.5,3.1,3.2
							c1.1,0.4,2.4,0.1,3.7-0.7c4.3-2.8,4.5-9.4,4.5-10.7c-6.7-1.8-11.4,2.9-12.7,4.4c-1.5,1.7-2.1,3.2-1.9,3.5
							c0.1,0.3,0.3,0.4,0.6,0.5c0.9,0.3,2.3-0.3,2.3-0.3C628.3,504,628.4,504,628.4,504z" style="fill:#3e414e"></path>
            </g>
          </g>
          <g>
            <path d="M615.1,531.1c0,0,1.9-1.6-0.2-2.3c-2.1-0.8-12.4-0.5-12.5,9.6c0,0,12,2,13.5-1.9
						C617.4,532.6,615.1,531.1,615.1,531.1z" style="fill:#007cff"></path>
          </g>
          <g>
            <g>
              <path d="M615.1,531.1c0,0,1.9-1.6-0.2-2.3c-2.1-0.8-12.4-0.5-12.5,9.6c0,0,12,2,13.5-1.9
							C617.4,532.6,615.1,531.1,615.1,531.1z" style="fill:#9ec9ef"></path>
            </g>
            <g>
              <path d="M608.7,539.2c-3.1,0-6.1-0.5-6.3-0.5c-0.1,0-0.3-0.2-0.3-0.3c0-3.7,1.4-6.5,4-8.3c3.3-2.3,7.7-2.1,9-1.7
							c0.7,0.3,1.1,0.6,1.2,1.1c0.1,0.6-0.3,1.2-0.7,1.5c0.6,0.6,1.9,2.3,0.6,5.5C615.4,538.7,611.9,539.2,608.7,539.2z
							 M602.7,538.1c3.4,0.5,11.8,1.2,12.9-1.7c1.4-3.6-0.6-5-0.7-5.1c-0.1-0.1-0.1-0.1-0.1-0.2c0-0.1,0-0.2,0.1-0.2
							c0.2-0.2,0.8-0.7,0.7-1.2c-0.1-0.3-0.4-0.5-0.8-0.6c-1.1-0.4-5.3-0.5-8.4,1.6C604.1,532.2,602.8,534.8,602.7,538.1z" style="fill:#3e414e"></path>
            </g>
          </g>
          <g>
            <path d="M639.5,508.2c0,0-1.9-1.6,0.2-2.3c2.1-0.8,12.4-0.5,12.5,9.6c0,0-12,2-13.5-1.9
						C637.2,509.7,639.5,508.2,639.5,508.2z" style="fill:#007cff"></path>
          </g>
          <g>
            <g>
              <path d="M639.5,508.2c0,0-1.9-1.6,0.2-2.3c2.1-0.8,12.4-0.5,12.5,9.6c0,0-12,2-13.5-1.9
							C637.2,509.7,639.5,508.2,639.5,508.2z" style="fill:#9ec9ef"></path>
            </g>
            <g>
              <path d="M645.9,516.3c-3.3,0-6.7-0.5-7.5-2.6c-1.2-3.2,0-4.9,0.6-5.5c-0.3-0.3-0.8-0.9-0.7-1.5
							c0.1-0.5,0.5-0.9,1.2-1.1c1.3-0.5,5.6-0.6,9,1.7c2.6,1.8,3.9,4.6,4,8.3c0,0.1-0.1,0.3-0.3,0.3
							C652,515.8,649,516.3,645.9,516.3z M639.7,508.4c-0.1,0.1-2.1,1.5-0.7,5.1c1.1,2.9,9.4,2.3,12.9,1.7c-0.1-3.4-1.3-5.9-3.7-7.5
							c-3.1-2.1-7.3-2-8.4-1.6c-0.3,0.1-0.7,0.3-0.8,0.6c-0.1,0.4,0.5,1,0.7,1.2c0.1,0.1,0.1,0.2,0.1,0.2
							C639.8,508.3,639.8,508.4,639.7,508.4L639.7,508.4z" style="fill:#3e414e"></path>
            </g>
          </g>
          <g>
            <path d="M633.2,516.4c0,0-0.2-1.9,1.4-1.2c1.5,0.7,6.9,6.5,1.3,12c0,0-7.5-5.5-6.1-8.4
						C631.1,515.9,633.2,516.4,633.2,516.4z" style="fill:#007cff"></path>
          </g>
          <g>
            <g>
              <path d="M633.2,516.4c0,0-0.2-1.9,1.4-1.2c1.5,0.7,6.9,6.5,1.3,12c0,0-7.5-5.5-6.1-8.4
							C631.1,515.9,633.2,516.4,633.2,516.4z" style="fill:#9ec9ef"></path>
            </g>
            <g>
              <path d="M635.9,527.6c-0.1,0-0.1,0-0.2-0.1c-0.3-0.2-7.7-5.7-6.2-8.8c1.1-2.3,2.7-2.6,3.4-2.6c0,0,0,0,0,0
							c0-0.4,0.1-0.9,0.5-1.1c0.3-0.2,0.8-0.2,1.3,0c0.9,0.5,3.4,2.8,3.9,5.9c0.4,2.4-0.4,4.6-2.5,6.6
							C636,527.5,636,527.6,635.9,527.6z M632.8,516.7c-0.6,0-1.9,0.2-2.8,2.3c-1,2.1,3.7,6.3,5.8,7.9c1.7-1.8,2.5-3.8,2.1-5.9
							c-0.5-2.8-2.7-5-3.6-5.4c-0.2-0.1-0.5-0.2-0.7-0.1c-0.2,0.2-0.3,0.7-0.2,1c0,0.1,0,0.2-0.1,0.3c-0.1,0.1-0.2,0.1-0.3,0.1l0,0
							C633.1,516.7,633,516.7,632.8,516.7z" style="fill:#3e414e"></path>
            </g>
          </g>
          <g>
            <path d="M613.3,519.1c0,0,1.2-1.5-0.5-1.7c-1.7-0.2-9.3,1.8-7.6,9.5c0,0,9.3-0.7,9.7-3.9
						C615.3,519.8,613.3,519.1,613.3,519.1z" style="fill:#007cff"></path>
          </g>
          <g>
            <g>
              <path d="M613.3,519.1c0,0,1.2-1.5-0.5-1.7c-1.7-0.2-9.3,1.8-7.6,9.5c0,0,9.3-0.7,9.7-3.9
							C615.3,519.8,613.3,519.1,613.3,519.1z" style="fill:#9ec9ef"></path>
            </g>
            <g>
              <path d="M605.2,527.2c-0.1,0-0.3-0.1-0.3-0.2c-0.6-2.8-0.2-5.1,1.5-6.9c2.1-2.3,5.4-3,6.4-2.9
							c0.6,0.1,1,0.3,1.1,0.7c0.2,0.4,0,0.9-0.2,1.2c0.6,0.4,1.8,1.5,1.5,4C614.8,526.4,605.6,527.1,605.2,527.2
							C605.2,527.2,605.2,527.2,605.2,527.2z M612.6,517.7c-1.1,0-3.9,0.7-5.7,2.7c-1.4,1.6-1.9,3.7-1.4,6.1
							c2.7-0.2,8.9-1.3,9.2-3.6c0.4-2.9-1.3-3.5-1.4-3.6c-0.1,0-0.2-0.1-0.2-0.2c0-0.1,0-0.2,0-0.3c0.1-0.2,0.4-0.7,0.3-0.9
							c-0.1-0.2-0.4-0.3-0.6-0.3C612.7,517.7,612.6,517.7,612.6,517.7z" style="fill:#3e414e"></path>
            </g>
          </g>
          <g>
            <polygon points="644.7 590.3 612.8 590.3 609.4 555.4 648.2 555.4" style="fill:#fff"></polygon>
            <path d="M644.7,590.6h-31.9c-0.2,0-0.3-0.1-0.3-0.3l-3.4-34.9c0-0.1,0-0.2,0.1-0.2c0.1-0.1,0.1-0.1,0.2-0.1h38.8
						c0.1,0,0.2,0,0.2,0.1c0.1,0.1,0.1,0.1,0.1,0.2l-3.4,34.9C645,590.5,644.9,590.6,644.7,590.6z M613.1,590h31.3l3.4-34.3h-38.1
						L613.1,590z" style="fill:#3e414e"></path>
          </g>
          <g>
            <rect width="42.2" height="7.7" x="607.7" y="551.6" style="fill:#1a2e35"></rect>
          </g>
          <g style="opacity:.2;enable-background:new">
            <rect width="42.2" height="7.7" x="607.7" y="551.6" style="fill:#2d323d"></rect>
          </g>
        </g>
      </g>
      <g>
        <polygon points="473.7 338 483 366.5 513 366.5 488.7 384.1 498 412.6 473.7 395 449.5 412.6 458.7 384.1 434.5 366.5 464.5 366.5" style="fill:#9ec9ef"></polygon>
      </g>
      <g>
        <g>
          <polygon points="513 366.5 504.3 366.5 485.1 380.5 494.3 409 470.1 391.4 452.1 404.4 449.5 412.6 473.7 395 498 412.6 488.7 384.1" style="fill:#77b6e5"></polygon>
        </g>
      </g>
      <g>
        <path d="M494.5,350.5c-0.1,0-0.2,0-0.3-0.1c-0.3-0.2-0.4-0.6-0.2-0.8l8-12c0.2-0.3,0.6-0.4,0.8-0.2s0.4,0.6,0.2,0.8l-8,12
				C494.9,350.4,494.7,350.5,494.5,350.5z"></path>
      </g>
      <g>
        <path d="M452.9,350.5c-0.2,0-0.4-0.1-0.5-0.3l-8-12c-0.2-0.3-0.1-0.7,0.2-0.8c0.3-0.2,0.7-0.1,0.8,0.2l8,12
				c0.2,0.3,0.1,0.7-0.2,0.8C453.2,350.5,453.1,350.5,452.9,350.5z"></path>
      </g>
      <g>
        <path d="M429,392.9c-0.3,0-0.5-0.2-0.6-0.4c-0.1-0.3,0.1-0.7,0.4-0.8l13.2-4.3c0.3-0.1,0.7,0.1,0.8,0.4c0.1,0.3-0.1,0.7-0.4,0.8
				l-13.2,4.3C429.1,392.9,429,392.9,429,392.9z"></path>
      </g>
      <g>
        <path d="M518.5,392.9c-0.1,0-0.1,0-0.2,0l-13.2-4.3c-0.3-0.1-0.5-0.4-0.4-0.8c0.1-0.3,0.4-0.5,0.8-0.4l13.2,4.3
				c0.3,0.1,0.5,0.4,0.4,0.8C518.9,392.7,518.7,392.9,518.5,392.9z"></path>
      </g>
      <g>
        <path d="M473.7,423.9c-0.3,0-0.6-0.3-0.6-0.6v-12.1c0-0.3,0.3-0.6,0.6-0.6s0.6,0.3,0.6,0.6v12.1
				C474.3,423.6,474.1,423.9,473.7,423.9z"></path>
      </g>
      <g>
        <g>
          <g>
            <path d="M527.4,474.1H420c-5.3,0-9.5-4.3-9.5-9.5l0,0c0-5.3,4.3-9.5,9.5-9.5h107.4c5.3,0,9.5,4.3,9.5,9.5l0,0
						C536.9,469.8,532.7,474.1,527.4,474.1z" style="fill:#9ec9ef"></path>
          </g>
          <g>
            <path d="M527.4,474.4H420c-5.4,0-9.8-4.4-9.8-9.8s4.4-9.8,9.8-9.8h107.4c5.4,0,9.8,4.4,9.8,9.8
						S532.8,474.4,527.4,474.4z M420,455.4c-5.1,0-9.2,4.1-9.2,9.2s4.1,9.2,9.2,9.2h107.4c5.1,0,9.2-4.1,9.2-9.2s-4.1-9.2-9.2-9.2
						H420z" style="fill:#3e414e"></path>
          </g>
        </g>
        <g>
          <path d="M532.5,456.5c0.9,1.5,1.5,3.2,1.5,5.1v0c0,5.3-4.3,9.5-9.5,9.5H417.1c-1.9,0-3.6-0.5-5.1-1.5
					c1.7,2.7,4.6,4.4,8,4.4h107.4c5.3,0,9.5-4.3,9.5-9.5v0C536.9,461.2,535.2,458.2,532.5,456.5z" style="fill:#77b6e5"></path>
        </g>
        <g>
          <path d="M527.4,474.4H420c-5.4,0-9.8-4.4-9.8-9.8s4.4-9.8,9.8-9.8h107.4c5.4,0,9.8,4.4,9.8,9.8
					S532.8,474.4,527.4,474.4z M420,455.4c-5.1,0-9.2,4.1-9.2,9.2s4.1,9.2,9.2,9.2h107.4c5.1,0,9.2-4.1,9.2-9.2s-4.1-9.2-9.2-9.2
					H420z" style="fill:#3e414e"></path>
        </g>
      </g>
      <g>
        <path d="M460.9 459.6c.6-.1 1.4-.2 2.2-.2 1.2 0 2 .2 2.6.7.4.4.7 1 .7 1.7 0 1.2-.7 1.9-1.7 2.3v0c.7.2 1.1.9 1.3 1.8.3 1.2.5 2.1.7 2.4h-1.2c-.1-.3-.3-1-.6-2.1-.3-1.2-.7-1.7-1.8-1.7H462v3.8h-1.1V459.6zM462 463.7h1.2c1.2 0 2-.7 2-1.7 0-1.1-.8-1.6-2-1.7-.6 0-.9.1-1.1.1V463.7zM469.4 465.6l-.9 2.8h-1.2l3-8.9h1.4l3 8.9h-1.2l-.9-2.8H469.4zM472.4 464.7l-.9-2.6c-.2-.6-.3-1.1-.5-1.6h0c-.1.5-.3 1.1-.4 1.6l-.9 2.6H472.4zM476.7 460.5H474v-1h6.6v1h-2.7v7.9h-1.2V460.5zM486.2 464.2h-3.4v3.2h3.8v1h-5v-8.9h4.8v1h-3.6v2.8h3.4V464.2z" style="fill:#fff"></path>
      </g>
      <g>
        <path d="M460.7,544.9h-42.3c-2.1,0-3.8-1.7-3.8-3.8v-42.3c0-2.1,1.7-3.8,3.8-3.8h42.3c2.1,0,3.8,1.7,3.8,3.8v42.3
				C464.5,543.2,462.8,544.9,460.7,544.9z" style="fill:#fff"></path>
        <path d="M460.7,545.2h-42.3c-2.2,0-4.1-1.8-4.1-4.1v-42.3c0-2.2,1.8-4.1,4.1-4.1h42.3c2.2,0,4.1,1.8,4.1,4.1v42.3
				C464.8,543.4,463,545.2,460.7,545.2z M418.5,495.4c-1.9,0-3.4,1.5-3.4,3.4v42.3c0,1.9,1.5,3.4,3.4,3.4h42.3
				c1.9,0,3.4-1.5,3.4-3.4v-42.3c0-1.9-1.5-3.4-3.4-3.4H418.5z" style="fill:#3e414e"></path>
      </g>
      <g>
        <path d="M530.5,544.9h-42.3c-2.1,0-3.8-1.7-3.8-3.8v-42.3c0-2.1,1.7-3.8,3.8-3.8h42.3c2.1,0,3.8,1.7,3.8,3.8v42.3
				C534.2,543.2,532.5,544.9,530.5,544.9z" style="fill:#fff"></path>
        <path d="M530.5,545.2h-42.3c-2.2,0-4.1-1.8-4.1-4.1v-42.3c0-2.2,1.8-4.1,4.1-4.1h42.3c2.2,0,4.1,1.8,4.1,4.1v42.3
				C534.5,543.4,532.7,545.2,530.5,545.2z M488.2,495.4c-1.9,0-3.4,1.5-3.4,3.4v42.3c0,1.9,1.5,3.4,3.4,3.4h42.3
				c1.9,0,3.4-1.5,3.4-3.4v-42.3c0-1.9-1.5-3.4-3.4-3.4H488.2z" style="fill:#3e414e"></path>
      </g>
      <g>
        <g>
          <path d="M421.6,519.4c0,7.1,4.8,13.1,11.4,14.9h10.5c6.6-1.8,11.4-7.8,11.4-14.9" style="fill:#f08680"></path>
          <path d="M443.5,534.6H433c0,0-0.1,0-0.1,0c-6.9-1.8-11.6-8.1-11.6-15.2c0-0.2,0.1-0.3,0.3-0.3s0.3,0.1,0.3,0.3
					c0,6.8,4.6,12.8,11.2,14.6h10.4c6.6-1.8,11.2-7.8,11.2-14.6c0-0.2,0.1-0.3,0.3-0.3s0.3,0.1,0.3,0.3
					C455.2,526.5,450.5,532.8,443.5,534.6C443.6,534.6,443.5,534.6,443.5,534.6z" style="fill:#3e414e"></path>
        </g>
        <g>
          <path d="M452.9,519.4c-0.8,6.3-5.3,11.3-11.3,12.9h-10.5c-2.2-0.6-4.2-1.6-5.9-3.1c2,2.4,4.7,4.2,7.9,5h10.5
					c6.6-1.8,11.4-7.8,11.4-14.9H452.9z" style="fill:#e16d69"></path>
        </g>
        <g>
          <path d="M443.5,534.6H433c0,0-0.1,0-0.1,0c-6.9-1.8-11.6-8.1-11.6-15.2c0-0.2,0.1-0.3,0.3-0.3s0.3,0.1,0.3,0.3
					c0,6.8,4.6,12.8,11.2,14.6h10.4c6.6-1.8,11.2-7.8,11.2-14.6c0-0.2,0.1-0.3,0.3-0.3s0.3,0.1,0.3,0.3
					C455.2,526.5,450.5,532.8,443.5,534.6C443.6,534.6,443.5,534.6,443.5,534.6z" style="fill:#3e414e"></path>
        </g>
        <g>
          <g>
            <ellipse cx="438.3" cy="519.4" rx="16.7" ry="2.7" style="fill:#9ec9ef"></ellipse>
          </g>
          <g>
            <path d="M438.3,522.5c-6.8,0-17-0.8-17-3s10.2-3,17-3s17,0.8,17,3S445.1,522.5,438.3,522.5z M438.3,517
						c-10.1,0-16.4,1.4-16.4,2.4s6.2,2.4,16.4,2.4s16.4-1.4,16.4-2.4S448.4,517,438.3,517z" style="fill:#3e414e"></path>
          </g>
        </g>
        <g>
          <path d="M444.3,522l4.6-4.6l8.1-8.1c0.4-0.4,0.6-0.9,0.6-1.4c0-0.5-0.2-1-0.6-1.4c-0.8-0.8-2.1-0.8-2.9,0
					l-10.5,10.5l-5.3,5.3L444.3,522z" style="fill:#fff"></path>
          <path d="M438.3,522.5c-0.1,0-0.2-0.1-0.3-0.2c0-0.1,0-0.2,0.1-0.3l15.8-15.8c0.9-0.9,2.4-0.9,3.3,0
					c0.4,0.4,0.7,1,0.7,1.7c0,0.6-0.2,1.2-0.7,1.7l-12.7,12.7c-0.1,0.1-0.1,0.1-0.2,0.1L438.3,522.5
					C438.3,522.5,438.3,522.5,438.3,522.5z M444.3,522L444.3,522L444.3,522z M455.6,506c-0.5,0-0.9,0.2-1.2,0.5l-15.3,15.3l5.1-0.2
					l12.7-12.7c0.3-0.3,0.5-0.8,0.5-1.2c0-0.5-0.2-0.9-0.5-1.2C456.5,506.2,456,506,455.6,506z" style="fill:#3e414e"></path>
        </g>
      </g>
      <g>
        <g>
          <path d="M513.3,526.4h6.3h3.6c0,1.8-0.7,3.5-1.9,4.7c-1.2,1.2-2.9,1.9-4.7,1.9h-14.5c-3.7,0-6.7-3-6.7-6.7h3.6h11.8
					H513.3z" style="fill:#e1e4e1"></path>
          <path d="M516.6,533.3h-14.5c-3.8,0-7-3.1-7-7c0-0.2,0.1-0.3,0.3-0.3h27.8c0.2,0,0.3,0.1,0.3,0.3
					c0,1.9-0.7,3.6-2,4.9C520.2,532.6,518.4,533.3,516.6,533.3z M495.7,526.7c0.2,3.4,2.9,6,6.3,6h14.5c1.7,0,3.3-0.7,4.5-1.9
					c1.1-1.1,1.8-2.6,1.9-4.2H495.7z" style="fill:#3e414e"></path>
        </g>
        <g>
          <g>
            <path d="M523.2,519.1h-27.8l0,0c0-6.7,5.4-12.1,12.1-12.1h3.6C517.8,507,523.2,512.4,523.2,519.1L523.2,519.1z" style="fill:#9ec9ef"></path>
          </g>
          <g>
            <path d="M523.2,519.4h-27.8c-0.2,0-0.3-0.1-0.3-0.3c0-6.8,5.6-12.4,12.4-12.4h3.6c6.8,0,12.4,5.6,12.4,12.4
						C523.5,519.3,523.4,519.4,523.2,519.4z M495.7,518.8h27.2c-0.2-6.4-5.4-11.5-11.8-11.5h-3.6
						C501.1,507.3,495.9,512.5,495.7,518.8z" style="fill:#3e414e"></path>
          </g>
        </g>
        <g>
          <path d="M507.5,509.4h3.6c5.9,0,10.7,4.2,11.9,9.7h0.2c0-6.7-5.4-12.1-12.1-12.1h-3.6c-6.7,0-12.1,5.4-12.1,12.1
					h0.2C496.8,513.6,501.7,509.4,507.5,509.4z" style="fill:#77b6e5"></path>
        </g>
        <g>
          <path d="M513.3,526.4h6.3c1,0,1.9-0.4,2.6-1.1c0.5-0.5,0.9-1.2,1-2c0-0.2,0.1-0.4,0.1-0.6c0-2-1.6-3.6-3.6-3.6h-1.8
					h-9.7H499c-1,0-1.9,0.4-2.6,1.1c-0.5,0.5-0.9,1.2-1,2c0,0.2-0.1,0.4-0.1,0.6c0,2,1.6,3.6,3.6,3.6h11.8H513.3z" style="fill:#fff"></path>
          <path d="M519.6,526.7H499c-2.2,0-3.9-1.8-3.9-3.9c0-0.2,0-0.4,0.1-0.7c0.1-0.8,0.5-1.5,1.1-2.1
					c0.7-0.7,1.7-1.2,2.8-1.2h20.6c2.2,0,3.9,1.8,3.9,3.9c0,0.2,0,0.4-0.1,0.7c-0.1,0.8-0.5,1.5-1.1,2.1
					C521.6,526.3,520.7,526.7,519.6,526.7z M499,519.4c-0.9,0-1.7,0.3-2.3,1c-0.5,0.5-0.8,1.1-0.9,1.8c0,0.2-0.1,0.4-0.1,0.6
					c0,1.8,1.5,3.3,3.3,3.3h20.6c0.9,0,1.7-0.3,2.3-1c0.5-0.5,0.8-1.1,0.9-1.8c0-0.2,0.1-0.4,0.1-0.6c0-1.8-1.5-3.3-3.3-3.3H499z" style="fill:#3e414e"></path>
        </g>
        <g>
          <path d="M523.2,523.7L523.2,523.7c-1.1,0-1.7-0.4-2.1-0.6c-0.5-0.3-0.9-0.6-1.8-0.6s-1.4,0.3-1.8,0.6
					c-0.5,0.3-1.1,0.6-2.1,0.6c-0.1,0-0.1,0-0.2,0c-0.2,0-0.3-0.2-0.2-0.3c0-0.2,0.2-0.3,0.3-0.3c0,0,0,0,0,0c1,0,1.4-0.3,1.9-0.6
					c0.5-0.3,1.1-0.6,2.1-0.6c1.1,0,1.6,0.3,2.1,0.6c0.5,0.3,0.9,0.6,1.8,0.6c0.2,0,0.3,0.1,0.3,0.3
					C523.5,523.5,523.4,523.7,523.2,523.7z" style="fill:#3e414e"></path>
        </g>
        <g>
          <path d="M507.3,523.7c-1.1,0-1.6-0.3-2.1-0.6c-0.5-0.3-0.9-0.6-1.8-0.6c-0.9,0-1.4,0.3-1.8,0.6
					c-0.5,0.3-1.1,0.6-2.1,0.6c-1.1,0-1.6-0.3-2.1-0.6c-0.5-0.3-0.9-0.5-1.8-0.6c-0.2,0-0.3-0.1-0.3-0.3c0-0.2,0.1-0.3,0.3-0.3
					c1.1,0,1.6,0.4,2.1,0.6c0.5,0.3,0.9,0.6,1.8,0.6c0.9,0,1.4-0.3,1.8-0.6c0.5-0.3,1.1-0.6,2.1-0.6c1.1,0,1.6,0.3,2.1,0.6
					c0.5,0.3,0.9,0.6,1.8,0.6c0.9,0,1.4-0.3,1.8-0.6l0.1-0.1c0.1-0.1,0.3,0,0.4,0.1c0.1,0.1,0,0.3-0.1,0.4l-0.1,0.1
					C509,523.3,508.4,523.7,507.3,523.7z" style="fill:#3e414e"></path>
        </g>
        <g>
          <line x1="502.1" x2="503.3" y1="511.9" y2="511.3" style="fill:#fff"></line>
          <path d="M502.1,512.2c-0.1,0-0.2-0.1-0.3-0.2c-0.1-0.1,0-0.3,0.1-0.4l1.2-0.6c0.1-0.1,0.3,0,0.4,0.1
					c0.1,0.1,0,0.3-0.1,0.4l-1.2,0.6C502.2,512.2,502.1,512.2,502.1,512.2z" style="fill:#3e414e"></path>
        </g>
        <g>
          <line x1="504.4" x2="505.7" y1="514.4" y2="514.8" style="fill:#fff"></line>
          <path d="M505.7,515.1C505.7,515.1,505.7,515.1,505.7,515.1l-1.4-0.4c-0.2,0-0.2-0.2-0.2-0.4c0-0.2,0.2-0.3,0.4-0.2
					l1.3,0.4c0.2,0,0.2,0.2,0.2,0.4C506,515,505.9,515.1,505.7,515.1z" style="fill:#3e414e"></path>
        </g>
        <g>
          <line x1="500.4" x2="501.3" y1="516.3" y2="515.3" style="fill:#fff"></line>
          <path d="M500.4,516.6c-0.1,0-0.1,0-0.2-0.1c-0.1-0.1-0.1-0.3,0-0.4l0.9-1c0.1-0.1,0.3-0.1,0.4,0
					c0.1,0.1,0.1,0.3,0,0.4l-0.9,1C500.6,516.6,500.5,516.6,500.4,516.6z" style="fill:#3e414e"></path>
        </g>
        <g>
          <line x1="507" x2="508.3" y1="509.7" y2="510.2" style="fill:#fff"></line>
          <path d="M508.3,510.5c0,0-0.1,0-0.1,0l-1.3-0.5c-0.2-0.1-0.2-0.2-0.2-0.4c0.1-0.2,0.2-0.2,0.4-0.2l1.3,0.5
					c0.2,0.1,0.2,0.2,0.2,0.4C508.5,510.4,508.4,510.5,508.3,510.5z" style="fill:#3e414e"></path>
        </g>
        <g>
          <line x1="509.2" x2="509.5" y1="512.7" y2="514" style="fill:#fff"></line>
          <path d="M509.5,514.3c-0.1,0-0.3-0.1-0.3-0.2l-0.3-1.3c0-0.2,0.1-0.3,0.2-0.4c0.2,0,0.3,0.1,0.4,0.2l0.3,1.3
					C509.8,514.1,509.7,514.2,509.5,514.3C509.5,514.3,509.5,514.3,509.5,514.3z" style="fill:#3e414e"></path>
        </g>
        <g>
          <line x1="512.4" x2="512.9" y1="509.7" y2="511" style="fill:#fff"></line>
          <path d="M512.9,511.3c-0.1,0-0.2-0.1-0.3-0.2l-0.6-1.2c-0.1-0.2,0-0.3,0.2-0.4c0.2-0.1,0.3,0,0.4,0.2l0.6,1.2
					c0.1,0.2,0,0.3-0.2,0.4C513,511.3,513,511.3,512.9,511.3z" style="fill:#3e414e"></path>
        </g>
        <g>
          <line x1="516.6" x2="517.1" y1="512.8" y2="511.6" style="fill:#fff"></line>
          <path d="M516.6,513.1c0,0-0.1,0-0.1,0c-0.2-0.1-0.2-0.2-0.2-0.4l0.5-1.3c0.1-0.2,0.2-0.2,0.4-0.2
					c0.2,0.1,0.2,0.2,0.2,0.4l-0.5,1.3C516.8,513,516.7,513.1,516.6,513.1z" style="fill:#3e414e"></path>
        </g>
        <g>
          <line x1="513.3" x2="514.5" y1="514.8" y2="514" style="fill:#fff"></line>
          <path d="M513.3,515.1c-0.1,0-0.2,0-0.3-0.1c-0.1-0.1,0-0.3,0.1-0.4l1.1-0.7c0.1-0.1,0.3,0,0.4,0.1
					c0.1,0.1,0,0.3-0.1,0.4l-1.1,0.7C513.4,515,513.4,515.1,513.3,515.1z" style="fill:#3e414e"></path>
        </g>
        <g>
          <line x1="514.4" x2="515.7" y1="516.2" y2="516.6" style="fill:#fff"></line>
          <path d="M515.7,516.9C515.7,516.9,515.7,516.9,515.7,516.9l-1.4-0.3c-0.2,0-0.3-0.2-0.2-0.4c0-0.2,0.2-0.3,0.4-0.2
					l1.3,0.3c0.2,0,0.3,0.2,0.2,0.4C516,516.8,515.9,516.9,515.7,516.9z" style="fill:#3e414e"></path>
        </g>
        <g>
          <line x1="518.4" x2="519" y1="516.4" y2="515.2" style="fill:#fff"></line>
          <path d="M518.4,516.7c0,0-0.1,0-0.1,0c-0.1-0.1-0.2-0.3-0.1-0.4l0.6-1.2c0.1-0.2,0.3-0.2,0.4-0.1
					c0.1,0.1,0.2,0.3,0.1,0.4l-0.6,1.2C518.6,516.6,518.5,516.7,518.4,516.7z" style="fill:#3e414e"></path>
        </g>
        <g>
          <line x1="507.7" x2="509.1" y1="516.6" y2="516.8" style="fill:#fff"></line>
          <path d="M509.1,517.1C509.1,517.1,509.1,517.1,509.1,517.1l-1.4-0.2c-0.2,0-0.3-0.2-0.3-0.3c0-0.2,0.2-0.3,0.3-0.3
					l1.3,0.2c0.2,0,0.3,0.2,0.3,0.3C509.4,517,509.2,517.1,509.1,517.1z" style="fill:#3e414e"></path>
        </g>
        <g>
          <polygon points="517.8 519.1 511.7 528.8 508.1 519.1" style="fill:#f08680"></polygon>
          <path d="M511.7,529.1C511.7,529.1,511.7,529.1,511.7,529.1c-0.1,0-0.2-0.1-0.3-0.2l-3.6-9.7c0-0.1,0-0.2,0-0.3
					s0.1-0.1,0.2-0.1h9.7c0.1,0,0.2,0.1,0.3,0.2c0.1,0.1,0,0.2,0,0.3L512,529C511.9,529.1,511.8,529.1,511.7,529.1z M508.5,519.4
					l3.3,8.7l5.5-8.7H508.5z" style="fill:#3e414e"></path>
        </g>
        <g>
          <path d="M523.2,519.4h-27.8c-0.2,0-0.3-0.1-0.3-0.3c0-6.8,5.6-12.4,12.4-12.4h3.6c6.8,0,12.4,5.6,12.4,12.4
					C523.5,519.3,523.4,519.4,523.2,519.4z M495.7,518.8h27.2c-0.2-6.4-5.4-11.5-11.8-11.5h-3.6
					C501.1,507.3,495.9,512.5,495.7,518.8z" style="fill:#3e414e"></path>
        </g>
      </g>
      <g>
        <g>
          <polygon points="619.4 274.4 653.5 250.9 625.7 282.2" style="fill:#fff"></polygon>
          <path d="M625.7,282.5C625.7,282.5,625.7,282.5,625.7,282.5c-0.1,0-0.2,0-0.2-0.1l-6.4-7.8c-0.1-0.1-0.1-0.1-0.1-0.2
					c0-0.1,0.1-0.2,0.1-0.2l34.2-23.5c0.1-0.1,0.3-0.1,0.4,0c0.1,0.1,0.1,0.3,0,0.4L626,282.4C625.9,282.5,625.8,282.5,625.7,282.5z
					 M619.8,274.4l6,7.3l25.9-29.2L619.8,274.4z" style="fill:#3e414e"></path>
        </g>
        <g>
          <g>
            <polygon points="625.7 282.2 631.8 284.5 653.5 250.9" style="fill:#9ec9ef"></polygon>
          </g>
          <g>
            <path d="M631.8,284.8c0,0-0.1,0-0.1,0l-6.1-2.3c-0.1,0-0.2-0.1-0.2-0.2c0-0.1,0-0.2,0.1-0.3l27.8-31.3
						c0.1-0.1,0.3-0.1,0.4,0c0.1,0.1,0.2,0.3,0.1,0.4l-21.7,33.6C632,284.7,631.9,284.8,631.8,284.8z M626.3,282.1l5.4,2l19.4-30
						L626.3,282.1z" style="fill:#3e414e"></path>
          </g>
        </g>
        <g>
          <polygon points="653.5 250.9 628.4 289.7 628.4 309.2" style="fill:#fff"></polygon>
          <path d="M628.4,309.5C628.4,309.5,628.4,309.5,628.4,309.5c-0.2,0-0.3-0.2-0.3-0.3v-19.4c0-0.1,0-0.1,0-0.2
					l25.1-38.8c0.1-0.1,0.3-0.2,0.4-0.1c0.1,0.1,0.2,0.2,0.1,0.4l-25.1,58.3C628.6,309.4,628.5,309.5,628.4,309.5z M628.7,289.8
					v17.9l23.1-53.6L628.7,289.8z" style="fill:#3e414e"></path>
        </g>
        <g>
          <g>
            <polygon points="635 293.9 643 293.9 653.5 250.9" style="fill:#9ec9ef"></polygon>
          </g>
          <g>
            <path d="M643,294.2h-8c-0.1,0-0.2-0.1-0.3-0.1c-0.1-0.1-0.1-0.2,0-0.3l18.5-43c0.1-0.1,0.2-0.2,0.4-0.2
						c0.1,0,0.2,0.2,0.2,0.4l-10.5,43C643.3,294.1,643.2,294.2,643,294.2z M635.5,293.6h7.3l9.6-39.3L635.5,293.6z" style="fill:#3e414e"></path>
          </g>
        </g>
      </g>
      <g>
        <g>
          <path d="M622.3,295.5C622.3,295.5,622.3,295.5,622.3,295.5c-0.2,0-0.3-0.2-0.3-0.4c0.5-2.2,0.8-3.5,0.9-3.5
					c0-0.2,0.2-0.3,0.4-0.2c0.2,0,0.3,0.2,0.2,0.4c0,0-0.3,1.3-0.8,3.5C622.6,295.4,622.5,295.5,622.3,295.5z" style="fill:#f4f4f4"></path>
        </g>
        <g>
          <path d="M596,448.1C596,448.1,596,448.1,596,448.1c-0.2,0-0.3-0.2-0.3-0.3c0.3-2.4,0.7-4.8,1.2-7.4
					c0-0.2,0.2-0.3,0.4-0.2c0.2,0,0.3,0.2,0.2,0.4c-0.5,2.5-0.9,5-1.2,7.3C596.3,448,596.1,448.1,596,448.1z M598.8,433.6
					C598.8,433.6,598.8,433.5,598.8,433.6c-0.2-0.1-0.3-0.2-0.3-0.4c0.6-2.3,1.3-4.7,2.1-7.1c0.1-0.2,0.2-0.2,0.4-0.2
					c0.2,0.1,0.2,0.2,0.2,0.4c-0.8,2.4-1.5,4.8-2.1,7.1C599.1,433.5,599,433.6,598.8,433.6z M603.4,419.4c0,0-0.1,0-0.1,0
					c-0.2-0.1-0.2-0.2-0.2-0.4c0.9-2.3,1.8-4.6,2.8-6.9c0.1-0.2,0.2-0.2,0.4-0.2c0.2,0.1,0.2,0.2,0.2,0.4c-1,2.3-1.9,4.6-2.8,6.9
					C603.7,419.3,603.6,419.4,603.4,419.4z M638.8,407.3C638.8,407.3,638.8,407.2,638.8,407.3c-2.1-0.4-4.2-1.8-6.3-4.2
					c-0.1-0.1-0.1-0.3,0-0.4c0.1-0.1,0.3-0.1,0.4,0c2,2.3,4,3.6,5.9,4c0.2,0,0.3,0.2,0.2,0.4C639.1,407.2,639,407.3,638.8,407.3z
					 M609.3,405.7c0,0-0.1,0-0.1,0c-0.2-0.1-0.2-0.3-0.1-0.4c1.1-2.2,2.2-4.5,3.3-6.7c0.1-0.1,0.3-0.2,0.4-0.1
					c0.1,0.1,0.2,0.3,0.1,0.4c-1.1,2.2-2.3,4.4-3.3,6.7C609.5,405.7,609.4,405.7,609.3,405.7z M645.3,404.5c-0.1,0-0.1,0-0.2-0.1
					c-0.1-0.1-0.1-0.3,0-0.4c1.3-1.5,2.5-3.7,3.6-6.4c0.1-0.2,0.2-0.2,0.4-0.2c0.2,0.1,0.2,0.2,0.2,0.4c-1.1,2.8-2.3,5-3.7,6.5
					C645.5,404.5,645.4,404.5,645.3,404.5z M628.4,397.2c-0.1,0-0.2-0.1-0.3-0.1c-0.6-0.9-1.1-1.9-1.7-2.9c-0.6-1.2-1.2-2.4-1.8-3.7
					c-0.1-0.2,0-0.3,0.1-0.4c0.2-0.1,0.3,0,0.4,0.1c0.6,1.2,1.2,2.5,1.8,3.6c0.6,1,1.1,2,1.7,2.9c0.1,0.1,0,0.3-0.1,0.4
					C628.5,397.1,628.5,397.2,628.4,397.2z M616.2,392.5c-0.1,0-0.1,0-0.1,0c-0.1-0.1-0.2-0.3-0.1-0.4c1.2-2.2,2.5-4.3,3.8-6.4
					c0.1-0.1,0.3-0.2,0.4-0.1c0.1,0.1,0.2,0.3,0.1,0.4c-1.3,2.1-2.6,4.2-3.8,6.4C616.4,392.5,616.3,392.5,616.2,392.5z M651,391
					C651,391,651,391,651,391c-0.2,0-0.3-0.2-0.3-0.4c0.5-2.3,0.9-4.8,1.2-7.3c0-0.2,0.2-0.3,0.3-0.3c0.2,0,0.3,0.2,0.3,0.3
					c-0.3,2.5-0.7,5-1.2,7.4C651.3,390.9,651.2,391,651,391z M622.2,383.7c-0.1,0-0.2-0.1-0.3-0.2c-0.8-2.3-1.5-4.7-2.1-7.2
					c0-0.2,0.1-0.3,0.2-0.4c0.2,0,0.3,0.1,0.4,0.2c0.6,2.5,1.3,4.8,2.1,7.1C622.5,383.5,622.5,383.6,622.2,383.7
					C622.3,383.7,622.2,383.7,622.2,383.7z M624,379.9c-0.1,0-0.1,0-0.2-0.1c-0.1-0.1-0.2-0.3-0.1-0.4c1.5-2.1,2.9-4.2,4.4-6
					c0.1-0.1,0.3-0.2,0.4-0.1c0.1,0.1,0.2,0.3,0.1,0.4c-1.4,1.9-2.9,3.9-4.3,6C624.2,379.9,624.1,379.9,624,379.9z M652.6,376.2
					c-0.2,0-0.3-0.1-0.3-0.3v0c0-2.6-0.2-5.1-0.4-7.3c0-0.2,0.1-0.3,0.3-0.3c0.2,0,0.3,0.1,0.3,0.3c0.3,2.3,0.5,4.8,0.5,7.4
					C652.9,376,652.8,376.2,652.6,376.2z M618.6,369.3c-0.1,0-0.3-0.1-0.3-0.3c-0.4-2.4-0.8-4.9-1.1-7.4c0-0.2,0.1-0.3,0.3-0.3
					c0.2,0,0.3,0.1,0.3,0.3c0.3,2.5,0.6,5,1,7.3C618.9,369.1,618.8,369.3,618.6,369.3C618.6,369.3,618.6,369.3,618.6,369.3z
					 M633.1,368.1c-0.1,0-0.1,0-0.2-0.1c-0.1-0.1-0.1-0.3,0-0.4c1.8-2.1,3.6-3.9,5.3-5.3c0.1-0.1,0.3-0.1,0.4,0
					c0.1,0.1,0.1,0.3,0,0.4c-1.6,1.4-3.4,3.2-5.2,5.3C633.3,368.1,633.2,368.1,633.1,368.1z M650.4,361.6c-0.1,0-0.2-0.1-0.3-0.2
					c-0.1-0.3-0.2-0.5-0.3-0.8c-1-2.1-2.7-2.7-5.1-1.8c-0.2,0.1-0.3,0-0.4-0.2c-0.1-0.2,0-0.3,0.2-0.4c2.7-1,4.8-0.2,5.9,2.1
					c0.1,0.3,0.2,0.5,0.4,0.8c0.1,0.2,0,0.3-0.2,0.4C650.4,361.6,650.4,361.6,650.4,361.6z M616.9,354.5c-0.2,0-0.3-0.1-0.3-0.3
					c-0.1-2.4-0.2-4.9-0.3-7.4c0-0.2,0.1-0.3,0.3-0.3c0.1,0,0.3,0.1,0.3,0.3c0,2.5,0.1,5,0.3,7.4
					C617.2,354.4,617.1,354.5,616.9,354.5C616.9,354.5,616.9,354.5,616.9,354.5z M616.7,339.7C616.7,339.7,616.7,339.7,616.7,339.7
					c-0.2,0-0.3-0.1-0.3-0.3c0.1-2.4,0.2-4.9,0.3-7.4c0-0.2,0.2-0.3,0.3-0.3c0.2,0,0.3,0.2,0.3,0.3c-0.2,2.5-0.3,5-0.3,7.4
					C617,339.5,616.9,339.7,616.7,339.7z M617.6,324.8C617.6,324.8,617.6,324.8,617.6,324.8c-0.2,0-0.3-0.2-0.3-0.3
					c0.2-2.4,0.5-4.9,0.8-7.4c0-0.2,0.2-0.3,0.3-0.3c0.2,0,0.3,0.2,0.3,0.3c-0.3,2.5-0.6,5-0.8,7.4
					C617.9,324.7,617.8,324.8,617.6,324.8z M619.5,310.1C619.5,310.1,619.5,310.1,619.5,310.1c-0.2,0-0.3-0.2-0.3-0.4
					c0.4-2.5,0.8-4.9,1.3-7.3c0-0.2,0.2-0.3,0.4-0.2c0.2,0,0.3,0.2,0.2,0.4c-0.5,2.4-0.9,4.9-1.3,7.3
					C619.8,310,619.7,310.1,619.5,310.1z" style="fill:#f4f4f4"></path>
        </g>
        <g>
          <path d="M595.6,459.2c-0.2,0-0.3-0.1-0.3-0.3c-0.1-1.2-0.1-2.4-0.1-3.6c0-0.2,0.1-0.3,0.3-0.3c0,0,0,0,0,0
					c0.2,0,0.3,0.1,0.3,0.3c0,1.2,0,2.4,0.1,3.6C595.9,459,595.8,459.2,595.6,459.2C595.6,459.2,595.6,459.2,595.6,459.2z" style="fill:#f4f4f4"></path>
        </g>
      </g>
      <g>
        <g>
          <path d="M606.1,397.3h-62c-2,0-3.6-1.6-3.6-3.6v-62c0-2,1.6-3.6,3.6-3.6h62c2,0,3.6,1.6,3.6,3.6v62
					C609.7,395.7,608.1,397.3,606.1,397.3z" style="fill:#fff"></path>
          <path d="M606.1,397.6h-62c-2.2,0-3.9-1.8-3.9-3.9v-62c0-2.2,1.8-3.9,3.9-3.9h62c2.2,0,3.9,1.8,3.9,3.9v62
					C610,395.8,608.3,397.6,606.1,397.6z M544.1,328.3c-1.8,0-3.3,1.5-3.3,3.3v62c0,1.8,1.5,3.3,3.3,3.3h62c1.8,0,3.3-1.5,3.3-3.3
					v-62c0-1.8-1.5-3.3-3.3-3.3H544.1z" style="fill:#3e414e"></path>
        </g>
        <g>
          <g>
            <circle cx="575.1" cy="362.6" r="22.2" style="fill:#9ec9ef"></circle>
          </g>
          <g>
            <path d="M575.1,385.2c-12.4,0-22.5-10.1-22.5-22.5c0-12.4,10.1-22.5,22.5-22.5s22.5,10.1,22.5,22.5
						C597.6,375.1,587.5,385.2,575.1,385.2z M575.1,340.7c-12.1,0-21.9,9.8-21.9,21.9c0,12.1,9.8,21.9,21.9,21.9s21.9-9.8,21.9-21.9
						C597,350.6,587.2,340.7,575.1,340.7z" style="fill:#3e414e"></path>
          </g>
        </g>
        <g>
          <circle cx="584.1" cy="358.2" r="3.4" style="fill:#fff"></circle>
        </g>
        <g>
          <path d="M575.1,376.4c-3,0-5.5-2.5-5.5-5.5c0-0.2,0.1-0.3,0.3-0.3s0.3,0.1,0.3,0.3c0,2.7,2.2,4.9,4.9,4.9
					s4.9-2.2,4.9-4.9c0-0.2,0.1-0.3,0.3-0.3s0.3,0.1,0.3,0.3C580.6,373.9,578.1,376.4,575.1,376.4z" style="fill:#fff"></path>
        </g>
        <g>
          <circle cx="566.1" cy="358.2" r="3.4" style="fill:#fff"></circle>
        </g>
      </g>
    </g>
  </g>
</svg>
