<svg xmlns="http://www.w3.org/2000/svg" xml:space="preserve" id="boy-is-giving-reviews-on-online-food" x="0" y="0" style="enable-background:new 0 0 850 850" version="1.1" viewBox="0 0 850 850">
  <g>
    <g>
      <g>
        <path d="M455.5,303.1c4.7-13.1,17.1-21.9,30.9-21.1c8,0.5,17,2.6,26.1,8.1c28.1,17,91.1,72.6,85.8,154.3
				c-5.2,78.6-5.4,138.3-103.7,134.2c-11.8-0.5-23.7-0.7-35.5-0.8c-43.9-0.3-139-3-184.2-19.2c-38.3-13.7-27.6-42.5-14.9-61.4
				c18.6-27.6,21.8-62.9,7.5-93c-0.7-1.4-1.3-2.8-2.1-4.2c-23.2-45.1,38.4-89.8,104.1-71.5C422.5,333.1,448.3,323.2,455.5,303.1z" style="fill:#f4f4f4"></path>
      </g>
      <g>
        <path d="M614.1,291.1c-2.2-2.7-13.8-4.4-17-4c-3.1,0.4-8.6-6.4-11.7-8s-4.8,3.3-8.6,5.2c-3.8,2-8-7.2-15.7-11.1
				c-7.7-3.9-13,17.9-13,17.9H614.1z" style="fill:#f4f4f4"></path>
      </g>
      <g>
        <path d="M393.5,291.1c-2.2-2.7-13.8-4.4-17-4c-3.1,0.4-8.6-6.4-11.7-8s-4.8,3.3-8.6,5.2c-3.8,2-8-7.2-15.7-11.1
				c-7.7-3.9-13,17.9-13,17.9H393.5z" style="fill:#f4f4f4"></path>
      </g>
      <g>
        <path d="M531.2,351.4c-2.2-2.7-13.8-4.4-17-4c-3.1,0.4-8.6-6.4-11.7-8c-3.1-1.6-4.8,3.3-8.6,5.2
				c-3.8,2-8-7.2-15.7-11.1c-7.7-3.9-13,17.9-13,17.9H531.2z" style="fill:#fff"></path>
      </g>
      <g>
        <path d="M299.8,372.1c0,0,10.9-16.8,21.3-12.8c10.4,4.1,24,12.9,32.7,10.7c8.7-2.2,18.4-9.1,24.1-7.4
				c5.7,1.7,15.6,9.5,15.6,9.5h-94.3" style="fill:#fff"></path>
      </g>
    </g>
    <g>
      <g>
        <g>
          <ellipse cx="232.9" cy="595.3" rx="46.3" ry="5.3" style="fill:#f4f4f4"></ellipse>
        </g>
        <g>
          <g>
            <g>
              <path d="M231.9,445.2c0,0,1.2,43,1.7,51.5c0.5,8.5,1.1,79.7,1.1,79.7s17,0.2,17,0c0-0.3,9.8-75.4,11.3-96.3
							c1.5-20.9,0.6-45.6,2.5-48.5c1.9-2.9-5.2-23.4-5.2-23.4l-16.9,4L231.9,445.2z" style="fill:#9ec9ef"></path>
            </g>
            <g>
              <path d="M245.9,576.9c-2.5,0-6.1,0-11.2-0.1c-0.2,0-0.3-0.1-0.3-0.3c0-0.7-0.7-71.3-1.1-79.7
							c-0.5-8.4-1.7-51.1-1.7-51.5c0,0,0-0.1,0-0.1l11.5-33c0-0.1,0.1-0.2,0.2-0.2l16.9-4c0.2,0,0.3,0,0.4,0.2
							c0.7,2.1,7.2,20.7,5.2,23.7c-1.1,1.6-1.3,10.9-1.5,21.7c-0.2,8.4-0.4,17.8-1,26.7c-0.8,11.8-4.4,42.6-10.7,91.7
							c-0.4,2.7-0.6,4.6-0.6,4.7c0,0.1,0,0.2-0.1,0.2C251.8,576.7,251.7,576.9,245.9,576.9z M235,576.2c6.1,0.1,15,0.2,16.4,0
							c0-0.4,0.2-1.5,0.6-4.5c6.3-49,9.9-79.8,10.7-91.6c0.6-8.8,0.8-18.3,1-26.7c0.3-11.8,0.4-20.3,1.6-22c1.5-2.2-3.1-17-5.2-22.9
							l-16.5,3.9l-11.4,32.8c0.1,1.8,1.2,43.2,1.7,51.5C234.3,504.8,235,571.1,235,576.2z" style="fill:#3e414e"></path>
            </g>
          </g>
          <g>
            <g>
              <rect width="12.6" height="11" x="236.8" y="576.5" style="fill:#fff"></rect>
              <path d="M249.4,587.8h-12.6c-0.2,0-0.3-0.1-0.3-0.3v-11c0-0.2,0.1-0.3,0.3-0.3h12.6c0.2,0,0.3,0.1,0.3,0.3v11
							C249.7,587.7,249.5,587.8,249.4,587.8z M237.1,587.2h12v-10.4h-12V587.2z" style="fill:#3e414e"></path>
            </g>
            <g>
              <path d="M261.7,597.8c-4.6-0.2-12.3-3.3-15-3c-1.8,0.2-7.1,0.3-10.6,0.4c-1.8,0-3.2-1.4-3.2-3.2
							c0-1,0.1-2.1,0.2-3.2c0.2-1.9,0.5-4,1-5.7c0.2-0.7,0.5-1.3,0.8-1.9c0.5-0.8,1.5-1,2.2-0.4c1.9,1.5,6.1,4.3,8.4,3.2
							c1.5-0.7,2.3-2.2,2.8-3.6c0.3-1.1,1.7-1.3,2.5-0.6c2.5,2.5,7,6.6,10.5,7.5c5.2,1.2,10.9,3.2,11.2,5.9
							C272.7,596,266.3,598,261.7,597.8z" style="fill:#fff"></path>
              <path d="M262.2,598.1c-0.2,0-0.4,0-0.5,0l0,0c-2.3-0.1-5.5-0.9-8.3-1.7c-2.7-0.7-5.3-1.5-6.6-1.3
							c-1.3,0.2-4.8,0.3-10.7,0.4c-0.9,0-1.8-0.3-2.5-1c-0.7-0.7-1-1.5-1-2.5c0-1.2,0.1-2.3,0.2-3.3c0.2-2.3,0.5-4.2,1-5.7
							c0.3-0.8,0.5-1.4,0.8-1.9c0.3-0.4,0.7-0.8,1.2-0.9c0.5-0.1,1,0,1.4,0.3c1.7,1.3,5.9,4.2,8.1,3.2c1.5-0.7,2.2-2.2,2.6-3.4
							c0.2-0.6,0.7-1,1.3-1.2c0.6-0.1,1.3,0,1.7,0.5c2.4,2.4,6.9,6.5,10.3,7.4c7.5,1.8,11.2,3.8,11.4,6.2c0.1,0.7-0.2,1.3-0.8,1.9
							C270.2,597,265.6,598.1,262.2,598.1z M247.2,594.5c1.4,0,3.7,0.6,6.3,1.3c2.8,0.8,5.9,1.6,8.2,1.7c0,0,0,0,0,0
							c3.8,0.1,8.3-1.2,9.9-2.8c0.4-0.5,0.7-1,0.6-1.4c-0.2-2-3.9-4-11-5.7c-3.6-0.9-8.2-5.1-10.6-7.5c-0.3-0.3-0.7-0.4-1.1-0.3
							c-0.4,0.1-0.7,0.4-0.8,0.8c-0.6,1.8-1.6,3.1-2.9,3.8c-2.4,1.1-6.5-1.5-8.7-3.2c-0.3-0.2-0.6-0.3-1-0.2
							c-0.3,0.1-0.6,0.3-0.8,0.6c-0.3,0.5-0.5,1.1-0.8,1.8c-0.5,1.5-0.8,3.3-1,5.6c-0.1,1-0.1,2.1-0.2,3.2c0,0.8,0.3,1.5,0.8,2
							c0.5,0.5,1.3,0.8,2,0.8c0,0,0,0,0,0c2.1,0,8.7-0.1,10.6-0.4C246.8,594.5,247,594.5,247.2,594.5z" style="fill:#3e414e"></path>
            </g>
            <g>
              <path d="M261.6,593.5C261.6,593.5,261.6,593.5,261.6,593.5l-23.1-3.2c-0.2,0-0.3-0.2-0.3-0.3
							c0-0.2,0.2-0.3,0.3-0.3l23.1,3.2c0.2,0,0.3,0.2,0.3,0.3C261.9,593.3,261.8,593.5,261.6,593.5z" style="fill:#3e414e"></path>
            </g>
            <g>
              <path d="M267,597.2c-3.7-4.3-0.9-7.5-0.2-8.3" style="fill:#fff"></path>
              <path d="M267,597.5c-0.1,0-0.2,0-0.2-0.1c-3.9-4.5-0.8-8-0.1-8.7c0.1-0.1,0.3-0.1,0.4,0c0.1,0.1,0.1,0.3,0,0.4
							c-0.8,0.8-3.3,3.8,0.2,7.8c0.1,0.1,0.1,0.3,0,0.4C267.2,597.5,267.1,597.5,267,597.5z" style="fill:#3e414e"></path>
            </g>
            <g>
              <path d="M236.5,585.9c0,1.6-1.3,2.9-2.9,2.9c-0.2,0-0.3,0-0.5,0c0.2-1.9,0.5-4,1-5.7
							C235.4,583.3,236.5,584.5,236.5,585.9z" style="fill:#3c4150"></path>
            </g>
          </g>
          <g>
            <path d="M263.5,418.1c0,0,3.6,8.8,2.1,13.5c0,0-0.4,0.8-0.5,1.7c-0.2,1-0.7,8-0.8,13.2s-0.3,13.9-0.3,13.9
						l-0.4,10.8c0,0-0.7,11.4-0.8,13s-1.4,14.2-1.4,14.2l-2.4,20.5l-7.1,57.4l-17,0c0,0,5.9-17.9,6.4-26.2
						c0.6-8.4,1.7-56.6,8.2-66.5s6.8-18.9,4.7-26.4c-2.1-7.5,1.6-36.5,1.6-36.5S257.3,421.4,263.5,418.1z" style="fill:#77b6e5"></path>
          </g>
          <g>
            <path d="M245.9,576.9c-2.5,0-6.1,0-11.2-0.1c-0.2,0-0.3-0.1-0.3-0.3c0-0.7-0.7-71.3-1.1-79.7
						c-0.5-8.4-1.7-51.1-1.7-51.5c0,0,0-0.1,0-0.1l11.5-33c0-0.1,0.1-0.2,0.2-0.2l16.9-4c0.2,0,0.3,0,0.4,0.2
						c0.7,2.1,7.2,20.7,5.2,23.7c-1.1,1.6-1.3,10.9-1.5,21.7c-0.2,8.4-0.4,17.8-1,26.7c-0.8,11.8-4.4,42.6-10.7,91.7
						c-0.4,2.7-0.6,4.6-0.6,4.7c0,0.1,0,0.2-0.1,0.2C251.8,576.7,251.7,576.9,245.9,576.9z M235,576.2c6.1,0.1,15,0.2,16.4,0
						c0-0.4,0.2-1.5,0.6-4.5c6.3-49,9.9-79.8,10.7-91.6c0.6-8.8,0.8-18.3,1-26.7c0.3-11.8,0.4-20.3,1.6-22c1.5-2.2-3.1-17-5.2-22.9
						l-16.5,3.9l-11.4,32.8c0.1,1.8,1.2,43.2,1.7,51.5C234.3,504.8,235,571.1,235,576.2z" style="fill:#3e414e"></path>
          </g>
          <g>
            <g>
              <path d="M207.6,408c0,0-3.2,34.6-3.4,62.9c-0.1,28.2-2,105.5-2,105.5h16.3c0,0,14.3-74.5,19.1-92.6
							c4.8-18.2,12.5-75.5,12.5-75.5L207.6,408z" style="fill:#9ec9ef"></path>
            </g>
            <g>
              <path d="M218.6,576.8h-16.3c-0.1,0-0.2,0-0.2-0.1c-0.1-0.1-0.1-0.1-0.1-0.2c0-0.8,1.9-77.6,2-105.5
							c0.1-27.9,3.3-62.6,3.4-62.9c0-0.2,0.1-0.3,0.3-0.3c0,0,0,0,0,0l42.6,0.3c0.1,0,0.2,0,0.2,0.1c0.1,0.1,0.1,0.2,0.1,0.2
							c-0.1,0.6-7.8,57.5-12.5,75.5c-4.7,17.9-19,91.9-19.1,92.6C218.9,576.7,218.7,576.8,218.6,576.8z M202.6,576.2h15.7
							c0.9-4.7,14.5-75,19.1-92.4c4.5-17.2,11.8-70.3,12.5-75.1l-42-0.3c-0.3,3.3-3.2,36-3.3,62.6
							C204.5,497.9,202.7,570.8,202.6,576.2z" style="fill:#3e414e"></path>
            </g>
          </g>
          <g>
            <g>
              <rect width="12.6" height="11" x="204.3" y="576.5" style="fill:#fff"></rect>
              <path d="M216.8,587.8h-12.6c-0.2,0-0.3-0.1-0.3-0.3v-11c0-0.2,0.1-0.3,0.3-0.3h12.6c0.2,0,0.3,0.1,0.3,0.3v11
							C217.1,587.7,217,587.8,216.8,587.8z M204.6,587.2h12v-10.4h-12V587.2z" style="fill:#3e414e"></path>
            </g>
            <g>
              <path d="M229.1,597.8c-4.6-0.2-12.3-3.3-15-3c-1.8,0.2-7.1,0.3-10.6,0.4c-1.8,0-3.2-1.4-3.2-3.2
							c0-1,0.1-2.1,0.2-3.2c0.2-1.9,0.5-4,1-5.7c0.2-0.7,0.5-1.3,0.8-1.9c0.5-0.8,1.5-1,2.2-0.4c1.9,1.5,6.1,4.3,8.4,3.2
							c1.5-0.7,2.3-2.2,2.8-3.6c0.3-1.1,1.7-1.3,2.5-0.6c2.5,2.5,7,6.6,10.5,7.5c5.2,1.2,10.9,3.2,11.2,5.9
							C240.2,596,233.7,598,229.1,597.8z" style="fill:#fff"></path>
              <path d="M229.7,598.1c-0.2,0-0.4,0-0.5,0l0,0c-2.3-0.1-5.5-0.9-8.3-1.7c-2.7-0.7-5.3-1.5-6.6-1.3
							c-1.3,0.2-4.8,0.3-10.7,0.4c-1,0-1.8-0.3-2.5-1c-0.7-0.7-1-1.5-1-2.5c0-1.2,0.1-2.3,0.2-3.3c0.2-2.3,0.5-4.2,1-5.7
							c0.3-0.8,0.5-1.4,0.8-1.9c0.3-0.4,0.7-0.8,1.2-0.9c0.5-0.1,1,0,1.4,0.3c1.7,1.3,5.9,4.2,8.1,3.2c1.5-0.7,2.2-2.2,2.6-3.4
							c0.2-0.6,0.7-1,1.3-1.2c0.6-0.2,1.3,0,1.7,0.5c2.4,2.4,6.9,6.5,10.3,7.4c7.5,1.8,11.2,3.8,11.4,6.2c0.1,0.7-0.2,1.3-0.8,1.9
							C237.6,597,233.1,598.1,229.7,598.1z M214.6,594.5c1.4,0,3.7,0.6,6.3,1.3c2.8,0.8,5.9,1.6,8.2,1.7h0c3.8,0.1,8.3-1.2,9.9-2.8
							c0.4-0.5,0.7-1,0.6-1.4c-0.2-2-3.9-4-11-5.7c-3.6-0.9-8.2-5.1-10.6-7.5c-0.3-0.3-0.7-0.4-1.1-0.3c-0.4,0.1-0.7,0.4-0.8,0.8
							c-0.6,1.8-1.6,3.1-2.9,3.8c-2.4,1.1-6.5-1.5-8.7-3.2c-0.3-0.2-0.6-0.3-1-0.2c-0.3,0.1-0.6,0.3-0.8,0.6
							c-0.3,0.5-0.5,1.1-0.8,1.8c-0.5,1.5-0.8,3.3-1,5.6c-0.1,1-0.1,2.1-0.2,3.2c0,0.8,0.3,1.5,0.8,2c0.5,0.5,1.3,0.8,2,0.8
							c0,0,0,0,0,0c2.1,0,8.7-0.1,10.6-0.4C214.3,594.5,214.5,594.5,214.6,594.5z" style="fill:#3e414e"></path>
            </g>
            <g>
              <path d="M229.1,593.5C229.1,593.5,229,593.5,229.1,593.5l-23.1-3.2c-0.2,0-0.3-0.2-0.3-0.3c0-0.2,0.2-0.3,0.3-0.3
							l23.1,3.2c0.2,0,0.3,0.2,0.3,0.3C229.3,593.3,229.2,593.5,229.1,593.5z" style="fill:#3e414e"></path>
            </g>
            <g>
              <path d="M234.5,597.2c-3.7-4.3-0.9-7.5-0.2-8.3" style="fill:#fff"></path>
              <path d="M234.5,597.5c-0.1,0-0.2,0-0.2-0.1c-3.9-4.5-0.8-8-0.1-8.7c0.1-0.1,0.3-0.1,0.4,0c0.1,0.1,0.1,0.3,0,0.4
							c-0.8,0.8-3.3,3.8,0.2,7.8c0.1,0.1,0.1,0.3,0,0.4C234.6,597.5,234.6,597.5,234.5,597.5z" style="fill:#3e414e"></path>
            </g>
            <g>
              <path d="M203.9,585.9c0,1.6-1.3,2.9-2.9,2.9c-0.2,0-0.3,0-0.5,0c0.2-1.9,0.5-4,1-5.7
							C202.9,583.3,203.9,584.5,203.9,585.9z" style="fill:#3c4150"></path>
            </g>
          </g>
          <g>
            <path d="M218.2,422.2c-5.5-0.6-11.5-3-11.5-3s-1.8,27.9-1.8,29.8s-0.6,19.9-0.6,19.9l-0.6,41.6l-1,46l-0.5,20h15.9
						c0,0-7.7-12.1-7.7-19.6c0-7.5,4.2-46.1,4.2-51.3c0-5.2-5.2-32.7,0-40.2S218.2,422.2,218.2,422.2z" style="fill:#77b6e5"></path>
          </g>
          <g>
            <path d="M218.6,576.8h-16.3c-0.1,0-0.2,0-0.2-0.1c-0.1-0.1-0.1-0.1-0.1-0.2c0-0.8,1.9-77.6,2-105.5
						c0.1-27.9,3.3-62.6,3.4-62.9c0-0.2,0.1-0.3,0.3-0.3c0,0,0,0,0,0l42.6,0.3c0.1,0,0.2,0,0.2,0.1c0.1,0.1,0.1,0.2,0.1,0.2
						c-0.1,0.6-7.8,57.5-12.5,75.5c-4.7,17.9-19,91.9-19.1,92.6C218.9,576.7,218.7,576.8,218.6,576.8z M202.6,576.2h15.7
						c0.9-4.7,14.5-75,19.1-92.4c4.5-17.2,11.8-70.3,12.5-75.1l-42-0.3c-0.3,3.3-3.2,36-3.3,62.6
						C204.5,497.9,202.7,570.8,202.6,576.2z" style="fill:#3e414e"></path>
          </g>
          <g>
            <path d="M259.5,340.7l6.1,73.7c0.2,1.6-0.7,3.1-2.2,3.7c-6.7,2.9-26.8,9.8-55.7,1.6c-1.6-0.5-2.8-2-2.8-3.7
						l-0.4-73.3" style="fill:#fff"></path>
            <path d="M234.8,423.9c-7.8,0-16.9-1-27-3.9c-1.8-0.5-3-2.1-3-4l-0.4-73.3c0-0.2,0.1-0.3,0.3-0.3c0,0,0,0,0,0
						c0.2,0,0.3,0.1,0.3,0.3l0.4,73.3c0,1.6,1.1,3,2.6,3.4c28.5,8.1,48.3,1.6,55.4-1.5c1.3-0.6,2.1-2,2-3.4l-6.1-73.7
						c0-0.2,0.1-0.3,0.3-0.3c0.2,0,0.3,0.1,0.3,0.3l6.1,73.7c0.2,1.7-0.8,3.3-2.3,4C258.9,420.4,248.9,423.9,234.8,423.9z" style="fill:#3e414e"></path>
          </g>
          <g>
            <path d="M205,406.6c39.6-9.5,51.6,2.3,58.4-0.7c0.5-0.2,1-0.6,1.4-1l0.8,9.6c0.2,1.6-0.7,3.1-2.2,3.7
						c-6.7,2.9-26.8,9.8-55.6,1.6c-1.7-0.5-2.8-2-2.8-3.7V406.6z" style="fill:#f4f4f4"></path>
          </g>
          <g>
            <path d="M234.8,423.9c-7.8,0-16.9-1-27-3.9c-1.8-0.5-3-2.2-3-4v-9.4c0-0.2,0.1-0.3,0.3-0.3s0.3,0.1,0.3,0.3v9.4
						c0,1.6,1.1,3,2.6,3.4c28.5,8.1,48.2,1.6,55.4-1.5c1.3-0.6,2.1-2,2-3.4l-0.8-9.6c0-0.2,0.1-0.3,0.3-0.3c0.2,0,0.3,0.1,0.3,0.3
						l0.8,9.6c0.2,1.7-0.8,3.3-2.3,4C258.9,420.4,248.9,423.9,234.8,423.9z" style="fill:#3e414e"></path>
          </g>
          <g>
            <path d="M230.9,430.4c0,0,14.5,6.7,14.4,9.4c-0.1,2.8-6.7-1.3-6.7-1.3s12.2,12,10,14.3
						c-2.2,2.3-11.5-11.2-11.5-11.2s3.8,4.9,2.5,6.3s-4.3-3.6-4.3-3.6s2.8,4.3,1.1,4.9c-1.7,0.6-3.6-4.1-3.6-4.1s1.8,4,0.4,4.9
						c-1.4,0.9-9.3-10.2-8.9-15.4L230.9,430.4z" style="fill:#fff"></path>
            <path d="M248,453.4c0,0-0.1,0-0.1,0c-1.9-0.2-5.3-4.1-7.9-7.3c0.3,0.9,0.3,1.6-0.2,2.1c-0.2,0.3-0.6,0.4-0.9,0.3
						c-0.6-0.1-1.3-0.6-1.9-1.3c0.2,0.6,0.3,1.2,0.1,1.6c-0.1,0.3-0.3,0.6-0.7,0.7c-0.9,0.3-1.8-0.5-2.6-1.6c0.1,1,0,1.9-0.6,2.3
						c-0.3,0.2-0.6,0.1-1.1-0.1c-2.6-1.6-8.7-10.8-8.4-15.5c0-0.1,0.1-0.2,0.1-0.2l6.7-4.2c0.1-0.1,0.2-0.1,0.3,0
						c1.5,0.7,14.7,6.8,14.6,9.7c0,0.6-0.3,0.9-0.6,1.1c-1,0.6-3.2-0.3-4.7-1.1c2.9,2.9,8.9,9.5,8.9,12.2c0,0.4-0.1,0.7-0.4,1
						C248.6,453.3,248.3,453.4,248,453.4z M238.4,443c2.6,3.6,7.4,9.6,9.5,9.8c0.2,0,0.4,0,0.5-0.2c0.1-0.1,0.2-0.3,0.2-0.6
						c0-3.3-10.1-13.2-10.2-13.3c-0.1-0.1-0.1-0.3,0-0.4c0.1-0.1,0.3-0.2,0.4-0.1c1.8,1.1,5,2.6,6,2.1c0.1-0.1,0.3-0.2,0.3-0.6
						c0-1.9-8.6-6.5-14.1-9.1l-6.4,4.1c-0.1,4.5,5.6,13.4,8.1,14.8c0.3,0.2,0.4,0.2,0.4,0.2c0.9-0.5,0.1-3-0.4-4.2
						c-0.1-0.1-0.1-0.3-0.1-0.3c-0.1-0.2,0-0.3,0.2-0.4c0.2-0.1,0.3,0,0.4,0.2c0,0.1,0.1,0.2,0.2,0.4c0.8,1.7,2.1,4,3.1,3.6
						c0.1-0.1,0.2-0.1,0.3-0.3c0.3-0.8-0.7-2.7-1.3-3.7c-0.1-0.2-0.2-0.4-0.3-0.4c-0.1-0.1,0-0.3,0.1-0.4s0.3,0,0.4,0.1
						c0,0.1,0.2,0.2,0.3,0.5c0.9,1.4,2.3,3.2,3.2,3.3c0.2,0,0.3,0,0.4-0.2c0.6-0.7-0.3-2.7-1.5-4.4c-0.6-0.8-1-1.4-1.1-1.5
						c-0.1-0.1-0.1-0.3,0.1-0.4c0.1-0.1,0.3-0.1,0.4,0.1C237.5,441.6,237.9,442.2,238.4,443z" style="fill:#3e414e"></path>
          </g>
          <g>
            <path d="M213.2,352.4c0,0,0.9,28.5,1.3,31.8s18.5,46.3,18.5,46.3l-9.7,7.6c0,0-21.8-35.6-24.1-45.8
						c-2.3-10.2-5.8-45.8-1-58.7c4.8-13,36.4-15.6,36.4-15.6s25.1,2.2,28.3,12.3s5.8,33.8,5.8,33.8l21-12.8l4.7,10.1
						c0,0-25,28-32.7,24.9c-7.6-3.1-10.1-43-10.1-43" style="fill:#fff"></path>
            <path d="M223.3,438.4C223.2,438.4,223.2,438.4,223.3,438.4c-0.1,0-0.2-0.1-0.3-0.1c-0.9-1.5-21.8-35.7-24.1-45.9
						c-2.2-9.5-6-45.6-1-58.9c4.8-13,35.3-15.7,36.6-15.8c1.1,0.1,25.4,2.4,28.6,12.5c2.9,9.2,5.3,30,5.7,33.4l20.6-12.5
						c0.1,0,0.2-0.1,0.2,0c0.1,0,0.2,0.1,0.2,0.2l4.7,10.1c0.1,0.1,0,0.2,0,0.3c-1,1.1-22.6,25.2-31.6,25.2c-0.5,0-1-0.1-1.4-0.3
						c-7.7-3.1-10.2-41.7-10.3-43.3c0-0.2,0.1-0.3,0.3-0.3c0.2,0,0.3,0.1,0.3,0.3c0,0.4,2.5,39.8,9.9,42.8
						c7.1,2.9,30.2-22.5,32.2-24.7l-4.4-9.7l-20.7,12.6c-0.1,0.1-0.2,0.1-0.3,0c-0.1,0-0.2-0.1-0.2-0.2c0-0.2-2.6-23.8-5.7-33.8
						c-3.1-9.8-27.8-12.1-28.1-12.1c-0.3,0-31.4,2.8-36,15.4c-4.9,13.2-1.1,49.1,1,58.6c2.2,9.6,21.8,42,23.9,45.4l9.3-7.2
						c-1.5-3.7-18-43-18.4-46.1c-0.4-3.2-1.3-30.6-1.3-31.8c0-0.2,0.1-0.3,0.3-0.3c0.2,0,0.3,0.1,0.3,0.3c0,0.3,0.9,28.6,1.3,31.8
						c0.4,3.2,18.3,45.8,18.5,46.2c0.1,0.1,0,0.3-0.1,0.4l-9.7,7.6C223.4,438.3,223.3,438.4,223.3,438.4z" style="fill:#3e414e"></path>
          </g>
          <g>
            <path d="M291.3,365.4l-10.1,1.7c-0.9,0.2-1.5-0.5-1.3-1.5l4.6-23.9c0.2-1,1.1-2,2.1-2.1l10.1-1.7
						c0.9-0.2,1.5,0.5,1.3,1.5l-4.6,23.9C293.1,364.3,292.2,365.2,291.3,365.4z" style="fill:#000509"></path>
          </g>
          <g>
            <path d="M298.9,341.8c-2.2,0.1-4.7,2-5.5,3.8c-0.7,1.9,0.2,1.9,1.2,1.8c1-0.1,1.9,0,1.9,0s-1.7,2-3.7,2.8
						c-2,0.8-3.2,2-2.3,3.4c0.9,1.3,1.2,1,2.5,0.5c0,0-1.8,1.5-1,3.1c0.9,1.6,3,0,3,0s-2.1,1.2-1.6,2.8c0.5,1.6,1.9,0.1,3.4-0.3
						c1.5-0.4,3.7-3,3.6-4.3s-0.2-2.6-0.2-2.6s0.4-1.3,0.5-2.8c0.1-1.6,0.1-1.6,0.1-1.6l-0.7-2C300.2,346.5,301.4,341.6,298.9,341.8
						z" style="fill:#fff"></path>
            <path d="M294.3,361c-0.1,0-0.3,0-0.4-0.1c-0.3-0.1-0.5-0.4-0.7-0.9c-0.2-0.7,0-1.4,0.3-1.9c-0.2,0-0.4,0-0.7,0
						c-0.5-0.1-0.8-0.4-1.1-0.9c-0.5-0.9-0.2-1.8,0.2-2.5c-0.6,0.2-1.1,0-1.7-1c-0.3-0.5-0.4-1-0.3-1.5c0.3-1.1,1.6-1.8,2.7-2.3
						c1.3-0.6,2.5-1.6,3.1-2.3c-0.3,0-0.8,0-1.2,0.1c-0.6,0.1-1.2,0.1-1.6-0.4c-0.3-0.4-0.3-1,0.1-1.9c0.8-2,3.4-3.9,5.8-4
						c0.6,0,1.1,0.1,1.4,0.5c1,1.2,0.4,3.9,0.3,4.4l0.7,1.9c0,0,0,0.1,0,0.1l-0.1,1.6c-0.1,1.4-0.4,2.6-0.5,2.9l0.2,2.5
						c0.1,1.5-2.3,4.2-3.8,4.6c-0.4,0.1-0.8,0.3-1.2,0.5C295.2,360.8,294.7,361,294.3,361z M294.8,357.7c-0.5,0.4-1.4,1.2-1.1,2.2
						c0.1,0.3,0.2,0.4,0.3,0.5c0.3,0.1,0.8-0.1,1.3-0.4c0.4-0.2,0.9-0.4,1.3-0.6c1.3-0.4,3.5-2.8,3.4-3.9l-0.2-2.6c0,0,0-0.1,0-0.1
						c0,0,0.4-1.2,0.5-2.8l0.1-1.5l-0.7-1.9c0-0.1,0-0.1,0-0.2c0.2-0.8,0.6-3.1-0.1-4c-0.2-0.2-0.5-0.4-0.9-0.3l0,0
						c-2.1,0.1-4.5,1.8-5.2,3.6c-0.3,0.9-0.3,1.2-0.2,1.3c0.2,0.2,0.6,0.2,1,0.1c1-0.1,1.9,0,2,0c0.1,0,0.2,0.1,0.3,0.2
						c0,0.1,0,0.2-0.1,0.3c-0.1,0.1-1.8,2-3.8,2.9c-1.3,0.6-2.1,1.2-2.3,1.9c-0.1,0.3,0,0.7,0.2,1c0.7,1,0.8,1,1.9,0.5l0.3-0.1
						c0.1-0.1,0.3,0,0.4,0.1c0.1,0.1,0,0.3-0.1,0.4c-0.1,0.1-1.6,1.4-0.9,2.8c0.2,0.3,0.4,0.5,0.7,0.5c0.5,0.1,1.1-0.1,1.5-0.4
						c0.2-0.2,0.4-0.3,0.4-0.3c0.1-0.1,0.3,0,0.4,0.1c0.1,0.1,0.1,0.3-0.1,0.4C295.2,357.5,295.1,357.6,294.8,357.7z M298.9,341.8
						L298.9,341.8L298.9,341.8z" style="fill:#3e414e"></path>
          </g>
          <g>
            <path d="M243.6,311.5c0,0,0.3,0,0.5-0.1L243.6,311.5z" style="fill:#ef8d72"></path>
          </g>
          <g>
            <path d="M212.4,285.8c1.5,5.6,4.8,12.4,7.4,15.2c0,0-3.9-8.5-1.1-10.8c2.8-2.3,7.5,8.5,7.5,8.5s-0.5-7,0.4-7.5
						c0.9-0.4,4.4-2.8,4.6-3.6c0.1-0.8,1.2-5.6,3.4-5.1c1.9,0.4,10.7,3,13.7,2.8c0.5,0,0.8-0.1,0.9-0.3c0.3-0.4,1.1-1.3,2-2.5
						c2.4-3.4,5.3-9.1-1-12.1c-8.6-4.1-12.5-4.7-15.9-4.8c-3.4-0.1-7.5,1.5-13.7,3.7c-6.2,2.2-5.8,7.1-4.9,8.6
						C215.7,278,210.9,280.1,212.4,285.8z" style="fill:#3c4150"></path>
          </g>
          <g>
            <path d="M219.8,301l0.5,19.3l11.3,9.7l6.1-11.7v-5.7c12.6-0.2,12.1-15.9,11.2-23.4c-0.3-2.4-0.6-3.9-0.6-3.9
						c-3,0.2-11.8-2.4-13.7-2.8c-2.2-0.5-3.3,4.3-3.4,5.1c-0.1,0.8-3.6,3.2-4.6,3.6c-0.9,0.4-0.4,7.5-0.4,7.5s-4.7-10.8-7.5-8.5
						C215.9,292.6,219.8,301,219.8,301z" style="fill:#fff"></path>
            <path d="M231.6,330.3c-0.1,0-0.1,0-0.2-0.1l-11.3-9.7c-0.1-0.1-0.1-0.1-0.1-0.2l-0.5-19.2c-0.4-0.8-3.9-8.7-1-11.1
						c0.4-0.4,0.9-0.5,1.5-0.3c2.2,0.5,4.7,5.1,5.9,7.5c-0.1-2.4-0.1-5.8,0.7-6.2c1.1-0.5,4.3-2.8,4.4-3.4c0-0.2,0.8-4,2.4-5.1
						c0.4-0.3,0.9-0.4,1.3-0.3c0.4,0.1,1,0.3,1.8,0.5c3.3,0.9,9.4,2.5,11.8,2.4c0.1,0,0.3,0.1,0.3,0.2c0,0,0.3,1.6,0.6,3.9
						c0.7,5.3,1.1,15.1-3.4,20.3c-1.9,2.2-4.5,3.4-7.8,3.5v5.4c0,0,0,0.1,0,0.1l-6.1,11.6C231.8,330.2,231.7,330.3,231.6,330.3
						C231.6,330.3,231.6,330.3,231.6,330.3z M220.6,320.2l10.9,9.3l5.9-11.2v-5.6c0-0.2,0.1-0.3,0.3-0.3c3.2,0,5.8-1.1,7.6-3.3
						c4.4-5,3.9-14.5,3.3-19.8c-0.2-1.8-0.5-3.1-0.6-3.6c0,0,0,0,0,0c-2.6,0-8.5-1.5-11.7-2.4c-0.8-0.2-1.4-0.4-1.8-0.5
						c-0.3-0.1-0.6,0-0.9,0.2c-1.2,0.8-2,3.7-2.2,4.7c-0.2,1-4,3.5-4.7,3.8c-0.4,0.3-0.5,4-0.3,7.2c0,0.1-0.1,0.3-0.2,0.3
						c-0.1,0-0.3,0-0.3-0.2c-1-2.2-4-8.1-6.1-8.6c-0.4-0.1-0.7,0-1,0.2c-2.6,2.2,1.1,10.4,1.2,10.4c0,0,0,0.1,0,0.1L220.6,320.2z" style="fill:#3e414e"></path>
          </g>
          <g>
            <path d="M237.5,312.9c-2.6,0-5.6-0.6-9-1.9c-0.2-0.1-0.2-0.2-0.2-0.4c0.1-0.2,0.2-0.2,0.4-0.2
						c3.4,1.3,6.4,1.9,8.9,1.9c0.2,0,0.3,0.1,0.3,0.3c0,0.2-0.1,0.3-0.3,0.3C237.7,312.9,237.6,312.9,237.5,312.9z" style="fill:#3e414e"></path>
          </g>
          <g>
            <path d="M248.3,285.3c0,0,0.3,1.5,0.6,3.9c4.5,0.1,2.3-6.7,2.3-6.7c-0.9,1.2-1.7,2.2-2,2.5
						C249.1,285.2,248.8,285.3,248.3,285.3z" style="fill:#3c4150"></path>
          </g>
          <g>
            <path d="M233.4,293.4c-0.1,0-0.2,0-0.2-0.1c-0.1-0.1-0.1-0.3,0-0.4c0.1-0.1,2.7-2.5,5.9-1.6c0.2,0,0.3,0.2,0.2,0.4
						c0,0.2-0.2,0.3-0.4,0.2c-2.9-0.8-5.3,1.4-5.3,1.4C233.6,293.3,233.5,293.4,233.4,293.4z" style="fill:#3e414e"></path>
          </g>
          <g>
            <path d="M243.4,292.1c-0.1,0-0.2-0.1-0.3-0.1c-0.1-0.1,0-0.3,0.1-0.4c0.1-0.1,2.5-1.5,4.8-0.2
						c0.1,0.1,0.2,0.3,0.1,0.4c-0.1,0.1-0.3,0.2-0.4,0.1c-2.1-1.1-4.2,0.2-4.2,0.2C243.5,292.1,243.5,292.1,243.4,292.1z" style="fill:#3e414e"></path>
          </g>
          <g>
            <circle cx="246.6" cy="296.2" r=".9" style="fill:#3c4150"></circle>
          </g>
          <g>
            <circle cx="238.2" cy="296.2" r=".9" style="fill:#3c4150"></circle>
          </g>
          <g>
            <path d="M244,302.9c-0.2,0-0.5-0.1-0.7-0.3c-1.4-1.2-1.4-6.3-1.4-6.9c0-0.2,0.1-0.3,0.3-0.3c0,0,0,0,0,0
						c0.2,0,0.3,0.1,0.3,0.3c0,1.5,0.3,5.6,1.2,6.4c0.1,0.1,0.3,0.1,0.3,0.1c1.5-0.2,1.6-1,1.6-1.1c0-0.2,0.1-0.3,0.3-0.3
						c0.2,0,0.3,0.1,0.3,0.3c0,0.1,0,1.4-2.1,1.7C244.1,302.9,244,302.9,244,302.9z" style="fill:#3e414e"></path>
          </g>
          <g>
            <path d="M244,308c-1.4,0-2.7-0.8-2.8-0.8c-0.1-0.1-0.2-0.3-0.1-0.4s0.3-0.2,0.4-0.1c0,0,2,1.1,3.3,0.6
						c0.2-0.1,0.3,0,0.4,0.2c0.1,0.2,0,0.3-0.2,0.4C244.7,307.9,244.4,308,244,308z" style="fill:#3e414e"></path>
          </g>
          <g>
            <path d="M196.8,339c0,0,7.1,5.6,6.8,12.3c-0.3,6.6-0.9,35.8,1.3,40.2c2.2,4.4,12.9,37.4,12.9,37.4
						s-17.4-29.7-18.6-36.6c-1.2-6.9-2.6-19.6-2.6-19.6s-1.2-17.4-0.8-22.9C196.1,344.2,196.8,339,196.8,339z" style="fill:#f4f4f4"></path>
          </g>
          <g>
            <path d="M217.8,429.2c-0.1,0-0.2-0.1-0.3-0.2c-0.7-1.2-17.4-29.8-18.6-36.7c-1.2-6.8-2.6-19.5-2.6-19.6
						c0-0.2-1.2-17.5-0.8-23c0.4-5.5,1-10.7,1-10.7c0-0.2,0.2-0.3,0.3-0.3c0.2,0,0.3,0.2,0.3,0.3c0,0.1-0.6,5.3-1,10.7
						c-0.4,5.4,0.8,22.7,0.8,22.9c0,0.1,1.4,12.8,2.6,19.6c1.2,6.7,18.4,36.2,18.6,36.5c0.1,0.1,0,0.3-0.1,0.4
						C217.9,429.1,217.8,429.2,217.8,429.2z" style="fill:#3e414e"></path>
          </g>
        </g>
      </g>
      <g>
        <g>
          <path d="M609.1,249.4H346.5c-5.4,0-9.7,4.4-9.7,9.7v165.1c0,5.4,4.4,9.7,9.7,9.7h23.7v31.3l55.7-31.3h183.2
					c5.4,0,9.7-4.4,9.7-9.7V259.2C618.9,253.8,614.5,249.4,609.1,249.4z" style="fill:#fff"></path>
          <path d="M370.2,465.6c-0.1,0-0.1,0-0.2,0c-0.1-0.1-0.1-0.2-0.1-0.3v-31h-23.4c-5.5,0-10-4.5-10-10V259.2
					c0-5.5,4.5-10,10-10h262.6c5.5,0,10,4.5,10,10v165.1c0,5.5-4.5,10-10,10H426l-55.7,31.2C370.3,465.6,370.2,465.6,370.2,465.6z
					 M346.5,249.7c-5.2,0-9.4,4.2-9.4,9.4v165.1c0,5.2,4.2,9.4,9.4,9.4h23.7c0.2,0,0.3,0.1,0.3,0.3v30.8l55.3-31c0,0,0.1,0,0.1,0
					h183.2c5.2,0,9.4-4.2,9.4-9.4V259.2c0-5.2-4.2-9.4-9.4-9.4H346.5z" style="fill:#3e414e"></path>
        </g>
        <g>
          <rect width="282.1" height="44.3" x="336.8" y="257.8" style="fill:#e1e4e1"></rect>
          <path d="M618.9,302.4H336.8c-0.2,0-0.3-0.1-0.3-0.3v-44.3c0-0.2,0.1-0.3,0.3-0.3h282.1c0.2,0,0.3,0.1,0.3,0.3v44.3
					C619.2,302.3,619.1,302.4,618.9,302.4z M337.1,301.8h281.5v-43.7H337.1V301.8z" style="fill:#3e414e"></path>
        </g>
        <g>
          <path d="M609.1,249.4H346.5c-5.4,0-9.7,4.4-9.7,9.7V277H386l11.9-11.9h38.5l11.9,11.9h170.6v-17.8
					C618.9,253.8,614.5,249.4,609.1,249.4z" style="fill:#fff"></path>
          <path d="M618.9,277.3H448.3c-0.1,0-0.2,0-0.2-0.1l-11.8-11.8H398l-11.8,11.8c-0.1,0.1-0.1,0.1-0.2,0.1h-49.2
					c-0.2,0-0.3-0.1-0.3-0.3v-17.8c0-5.5,4.5-10,10-10h262.6c5.5,0,10,4.5,10,10V277C619.2,277.1,619.1,277.3,618.9,277.3z
					 M448.4,276.7h170.2v-17.5c0-5.2-4.2-9.4-9.4-9.4H346.5c-5.2,0-9.4,4.2-9.4,9.4v17.5h48.8l11.8-11.8c0.1-0.1,0.1-0.1,0.2-0.1
					h38.5c0.1,0,0.2,0,0.2,0.1L448.4,276.7z" style="fill:#3e414e"></path>
        </g>
        <g>
          <circle cx="346.9" cy="266.8" r="4.2" style="fill:#e1e4e1"></circle>
          <path d="M346.9,271.3c-2.5,0-4.5-2-4.5-4.5s2-4.5,4.5-4.5s4.5,2,4.5,4.5S349.4,271.3,346.9,271.3z M346.9,262.9
					c-2.1,0-3.9,1.7-3.9,3.9s1.7,3.9,3.9,3.9s3.9-1.7,3.9-3.9S349.1,262.9,346.9,262.9z" style="fill:#3e414e"></path>
        </g>
        <g>
          <circle cx="363" cy="266.8" r="4.2" style="fill:#e1e4e1"></circle>
          <path d="M363,271.3c-2.5,0-4.5-2-4.5-4.5s2-4.5,4.5-4.5s4.5,2,4.5,4.5S365.5,271.3,363,271.3z M363,262.9
					c-2.1,0-3.9,1.7-3.9,3.9s1.7,3.9,3.9,3.9s3.9-1.7,3.9-3.9S365.2,262.9,363,262.9z" style="fill:#3e414e"></path>
        </g>
        <g>
          <circle cx="379.2" cy="266.8" r="4.2" style="fill:#e1e4e1"></circle>
          <path d="M379.2,271.3c-2.5,0-4.5-2-4.5-4.5s2-4.5,4.5-4.5c2.5,0,4.5,2,4.5,4.5S381.6,271.3,379.2,271.3z
					 M379.2,262.9c-2.1,0-3.9,1.7-3.9,3.9s1.7,3.9,3.9,3.9c2.1,0,3.9-1.7,3.9-3.9S381.3,262.9,379.2,262.9z" style="fill:#3e414e"></path>
        </g>
        <g>
          <path d="M588.5,295H367.1c-3,0-5.4-2.4-5.4-5.4v-0.6c0-3,2.4-5.4,5.4-5.4h221.5c3,0,5.4,2.4,5.4,5.4v0.6
					C594,292.6,591.5,295,588.5,295z" style="fill:#fff"></path>
          <path d="M588.5,295.3H367.1c-3.2,0-5.7-2.6-5.7-5.7v-0.6c0-3.2,2.6-5.7,5.7-5.7h221.5c3.2,0,5.7,2.6,5.7,5.7v0.6
					C594.3,292.7,591.7,295.3,588.5,295.3z M367.1,283.8c-2.8,0-5.1,2.3-5.1,5.1v0.6c0,2.8,2.3,5.1,5.1,5.1h221.5
					c2.8,0,5.1-2.3,5.1-5.1v-0.6c0-2.8-2.3-5.1-5.1-5.1H367.1z" style="fill:#3e414e"></path>
        </g>
      </g>
      <g>
        <circle cx="474.1" cy="360.1" r="47.9" style="fill:#fff"></circle>
        <path d="M474.1,408.3c-26.6,0-48.2-21.6-48.2-48.2s21.6-48.2,48.2-48.2s48.2,21.6,48.2,48.2S500.7,408.3,474.1,408.3
				z M474.1,312.6c-26.2,0-47.6,21.3-47.6,47.6s21.3,47.6,47.6,47.6s47.6-21.3,47.6-47.6S500.3,312.6,474.1,312.6z" style="fill:#3e414e"></path>
      </g>
      <g>
        <g>
          <path d="M476.6,368.6h8.6h4.9c0,2.5-1,4.7-2.6,6.4s-3.9,2.6-6.4,2.6h-19.6c-5,0-9-4-9-9h4.9h15.9H476.6z" style="fill:#e1e4e1"></path>
          <path d="M481,377.9h-19.6c-5.1,0-9.3-4.2-9.3-9.3c0-0.2,0.1-0.3,0.3-0.3H490c0.2,0,0.3,0.1,0.3,0.3
					c0,2.5-1,4.8-2.7,6.6C485.9,377,483.5,377.9,481,377.9z M452.7,368.9c0.2,4.7,4,8.4,8.7,8.4H481c2.3,0,4.5-0.9,6.1-2.5
					c1.6-1.6,2.5-3.6,2.5-5.8H452.7z" style="fill:#3e414e"></path>
        </g>
        <g>
          <g>
            <path d="M490,358.8h-37.6l0,0c0-9,7.3-16.3,16.3-16.3h4.9C482.7,342.5,490,349.8,490,358.8L490,358.8z" style="fill:#9ec9ef"></path>
          </g>
          <g>
            <path d="M490,359.1h-37.6c-0.2,0-0.3-0.1-0.3-0.3c0-9.2,7.5-16.7,16.7-16.7h4.9c9.2,0,16.7,7.5,16.7,16.7
						C490.3,359,490.2,359.1,490,359.1z M452.7,358.5h37c-0.2-8.7-7.3-15.7-16-15.7h-4.9C460,342.8,452.9,349.8,452.7,358.5z" style="fill:#3e414e"></path>
          </g>
        </g>
        <g>
          <path d="M468.8,345.8h4.9c7.9,0,14.5,5.6,16,13.1h0.3c0-9-7.3-16.3-16.3-16.3h-4.9c-9,0-16.3,7.3-16.3,16.3h0.3
					C454.3,351.4,460.9,345.8,468.8,345.8z" style="fill:#77b6e5"></path>
        </g>
        <g>
          <path d="M476.6,368.6h8.6c1.4,0,2.6-0.5,3.5-1.4c0.7-0.7,1.2-1.6,1.4-2.6c0-0.3,0.1-0.5,0.1-0.8
					c0-2.7-2.2-4.9-4.9-4.9h-2.4h-13.1h-12.3c-1.4,0-2.6,0.5-3.5,1.4c-0.7,0.7-1.2,1.6-1.4,2.6c0,0.3-0.1,0.5-0.1,0.8
					c0,2.7,2.2,4.9,4.9,4.9h15.9H476.6z" style="fill:#fff"></path>
          <path d="M485.1,368.9h-27.8c-2.9,0-5.2-2.3-5.2-5.2c0-0.3,0-0.6,0.1-0.9c0.2-1.1,0.7-2,1.5-2.8c1-1,2.3-1.5,3.7-1.5
					h27.8c2.9,0,5.2,2.3,5.2,5.2c0,0.3,0,0.6-0.1,0.9c-0.2,1.1-0.7,2-1.5,2.8C487.8,368.4,486.5,368.9,485.1,368.9z M457.3,359.1
					c-1.2,0-2.4,0.5-3.3,1.3c-0.7,0.7-1.1,1.5-1.3,2.5c0,0.2-0.1,0.5-0.1,0.8c0,2.5,2.1,4.6,4.6,4.6h27.8c1.2,0,2.4-0.5,3.3-1.3
					c0.7-0.7,1.1-1.5,1.3-2.5c0-0.2,0.1-0.5,0.1-0.8c0-2.5-2.1-4.6-4.6-4.6H457.3z" style="fill:#3e414e"></path>
        </g>
        <g>
          <path d="M490,364.9L490,364.9c-1.5,0-2.2-0.4-2.8-0.9c-0.7-0.4-1.3-0.8-2.5-0.8c-1.3,0-1.9,0.4-2.5,0.8
					c-0.7,0.4-1.4,0.9-2.8,0.9c-0.1,0-0.1,0-0.2,0c-0.2,0-0.3-0.2-0.2-0.4c0-0.2,0.2-0.3,0.4-0.2c0,0,0.1,0,0.1,0
					c1.3,0,1.9-0.4,2.5-0.8c0.7-0.4,1.4-0.9,2.8-0.9c1.4,0,2.2,0.4,2.8,0.9c0.6,0.4,1.2,0.8,2.5,0.8c0.2,0,0.3,0.1,0.3,0.3
					S490.2,364.9,490,364.9z" style="fill:#3e414e"></path>
        </g>
        <g>
          <path d="M468.6,364.9c-1.4,0-2.2-0.4-2.8-0.9c-0.7-0.4-1.3-0.8-2.5-0.8c-1.3,0-1.9,0.4-2.5,0.8
					c-0.7,0.4-1.4,0.9-2.8,0.9c-1.4,0-2.2-0.4-2.8-0.9c-0.6-0.4-1.2-0.8-2.5-0.8c-0.2,0-0.3-0.1-0.3-0.3s0.1-0.3,0.3-0.3
					c0,0,0.1,0,0.1,0c1.4,0,2.1,0.4,2.8,0.9c0.7,0.4,1.3,0.8,2.5,0.8c1.3,0,1.9-0.4,2.5-0.8c0.7-0.4,1.4-0.9,2.8-0.9
					c1.4,0,2.1,0.4,2.8,0.9c0.7,0.4,1.3,0.8,2.5,0.8c1.3,0,1.9-0.4,2.5-0.8l0.2-0.1c0.1-0.1,0.3,0,0.4,0.1c0.1,0.1,0,0.3-0.1,0.4
					l-0.2,0.1C470.7,364.4,470,364.9,468.6,364.9z" style="fill:#3e414e"></path>
        </g>
        <g>
          <path d="M461.4,349.3c-0.1,0-0.2-0.1-0.3-0.2c-0.1-0.1,0-0.3,0.1-0.4l1.6-0.8c0.1-0.1,0.3,0,0.4,0.1
					c0.1,0.1,0,0.3-0.1,0.4l-1.6,0.8C461.5,349.3,461.5,349.3,461.4,349.3z" style="fill:#f4f4f4"></path>
        </g>
        <g>
          <path d="M466.4,353.3C466.4,353.3,466.3,353.3,466.4,353.3l-1.8-0.5c-0.2,0-0.2-0.2-0.2-0.4c0-0.2,0.2-0.3,0.4-0.2
					l1.7,0.5c0.2,0,0.2,0.2,0.2,0.4C466.6,353.2,466.5,353.3,466.4,353.3z" style="fill:#f4f4f4"></path>
        </g>
        <g>
          <path d="M459.2,355.3c-0.1,0-0.1,0-0.2-0.1c-0.1-0.1-0.1-0.3,0-0.4l1.2-1.4c0.1-0.1,0.3-0.1,0.4,0s0.1,0.3,0,0.4
					l-1.2,1.4C459.4,355.3,459.3,355.3,459.2,355.3z" style="fill:#f4f4f4"></path>
        </g>
        <g>
          <path d="M469.9,347.1c0,0-0.1,0-0.1,0l-1.7-0.6c-0.2-0.1-0.2-0.2-0.2-0.4c0.1-0.2,0.2-0.2,0.4-0.2l1.7,0.6
					c0.2,0.1,0.2,0.2,0.2,0.4C470.1,347,470,347.1,469.9,347.1z" style="fill:#f4f4f4"></path>
        </g>
        <g>
          <path d="M471.5,352.2c-0.1,0-0.3-0.1-0.3-0.2l-0.4-1.8c0-0.2,0.1-0.3,0.2-0.4c0.2,0,0.3,0.1,0.4,0.2l0.4,1.8
					C471.8,352,471.7,352.1,471.5,352.2C471.5,352.2,471.5,352.2,471.5,352.2z" style="fill:#f4f4f4"></path>
        </g>
        <g>
          <path d="M476.1,348.1c-0.1,0-0.2-0.1-0.3-0.2l-0.7-1.7c-0.1-0.2,0-0.3,0.2-0.4c0.2-0.1,0.3,0,0.4,0.2l0.7,1.7
					c0.1,0.2,0,0.3-0.2,0.4C476.2,348.1,476.2,348.1,476.1,348.1z" style="fill:#f4f4f4"></path>
        </g>
        <g>
          <path d="M481.1,350.6c0,0-0.1,0-0.1,0c-0.2-0.1-0.2-0.2-0.2-0.4l0.7-1.7c0.1-0.2,0.2-0.2,0.4-0.2
					c0.2,0.1,0.2,0.2,0.2,0.4l-0.7,1.7C481.3,350.5,481.2,350.6,481.1,350.6z" style="fill:#f4f4f4"></path>
        </g>
        <g>
          <path d="M476.7,353.2c-0.1,0-0.2-0.1-0.3-0.1c-0.1-0.1,0-0.3,0.1-0.4l1.5-1c0.1-0.1,0.3,0,0.4,0.1
					c0.1,0.1,0,0.3-0.1,0.4l-1.5,1C476.8,353.2,476.7,353.2,476.7,353.2z" style="fill:#f4f4f4"></path>
        </g>
        <g>
          <path d="M479.9,355.7C479.9,355.7,479.8,355.7,479.9,355.7l-1.8-0.4c-0.2,0-0.3-0.2-0.2-0.4c0-0.2,0.2-0.3,0.4-0.2
					l1.8,0.4c0.2,0,0.3,0.2,0.2,0.4C480.2,355.6,480,355.7,479.9,355.7z" style="fill:#f4f4f4"></path>
        </g>
        <g>
          <path d="M483.5,355.5c0,0-0.1,0-0.1,0c-0.2-0.1-0.2-0.3-0.1-0.4l0.8-1.6c0.1-0.2,0.3-0.2,0.4-0.1
					c0.2,0.1,0.2,0.3,0.1,0.4l-0.8,1.6C483.7,355.4,483.6,355.5,483.5,355.5z" style="fill:#f4f4f4"></path>
        </g>
        <g>
          <path d="M470.9,356C470.9,356,470.9,356,470.9,356l-1.9-0.3c-0.2,0-0.3-0.2-0.3-0.3c0-0.2,0.2-0.3,0.3-0.3l1.8,0.3
					c0.2,0,0.3,0.2,0.3,0.3C471.2,355.9,471.1,356,470.9,356z" style="fill:#f4f4f4"></path>
        </g>
        <g>
          <polygon points="482.7 358.8 474.5 371.9 469.6 358.8" style="fill:#f08680"></polygon>
          <path d="M474.5,372.2C474.5,372.2,474.5,372.2,474.5,372.2c-0.1,0-0.2-0.1-0.3-0.2l-4.9-13.1c0-0.1,0-0.2,0-0.3
					c0.1-0.1,0.1-0.1,0.2-0.1h13.1c0.1,0,0.2,0.1,0.3,0.2c0.1,0.1,0,0.2,0,0.3l-8.2,13.1C474.7,372.2,474.6,372.2,474.5,372.2z
					 M470,359.1l4.5,12.1l7.6-12.1H470z" style="fill:#3e414e"></path>
        </g>
        <g>
          <path d="M490,359.1h-37.6c-0.2,0-0.3-0.1-0.3-0.3c0-9.2,7.5-16.7,16.7-16.7h4.9c9.2,0,16.7,7.5,16.7,16.7
					C490.3,359,490.2,359.1,490,359.1z M452.7,358.5h37c-0.2-8.7-7.3-15.7-16-15.7h-4.9C460,342.8,452.9,349.8,452.7,358.5z" style="fill:#3e414e"></path>
        </g>
      </g>
      <g>
        <g>
          <path d="M458.1,377.6h-14.5c-0.6,0-1.1-0.5-1.2-1.1l-2.7-24.9H462l-2.7,24.9C459.2,377.2,458.7,377.6,458.1,377.6z" style="fill:#fff"></path>
          <path d="M458.1,377.9h-14.5c-0.8,0-1.4-0.6-1.5-1.4l-2.7-24.9c0-0.1,0-0.2,0.1-0.2c0.1-0.1,0.1-0.1,0.2-0.1H462
					c0.1,0,0.2,0,0.2,0.1c0.1,0.1,0.1,0.1,0.1,0.2l-2.7,24.9C459.5,377.4,458.9,377.9,458.1,377.9z M440,351.9l2.7,24.6
					c0.1,0.5,0.4,0.8,0.9,0.8h14.5c0.5,0,0.9-0.3,0.9-0.8l2.7-24.6H440z" style="fill:#3e414e"></path>
        </g>
        <g>
          <polygon points="457.1 366.2 444.6 366.2 443.8 359.6 457.9 359.6" style="fill:#e1e4e1"></polygon>
          <path d="M457.1,366.5h-12.5c-0.2,0-0.3-0.1-0.3-0.3l-0.8-6.6c0-0.1,0-0.2,0.1-0.2c0.1-0.1,0.1-0.1,0.2-0.1h14
					c0.1,0,0.2,0,0.2,0.1c0.1,0.1,0.1,0.2,0.1,0.2l-0.7,6.6C457.4,366.4,457.3,366.5,457.1,366.5z M444.9,365.9h12l0.7-6h-13.4
					L444.9,365.9z" style="fill:#3e414e"></path>
        </g>
        <g>
          <path d="M452.3,348.8c0,0-0.1,0-0.1,0c-0.2-0.1-0.2-0.2-0.2-0.4l3.6-8.5c0-0.1,0.1-0.1,0.2-0.2l3.4-1.1
					c0.2,0,0.3,0,0.4,0.2c0,0.2,0,0.3-0.2,0.4l-3.3,1l-3.6,8.4C452.5,348.8,452.4,348.8,452.3,348.8z" style="fill:#3e414e"></path>
        </g>
        <g>
          <g>
            <path d="M463,351.6h-24.3c-1.1,0-2-0.9-2-2l0,0c0-1.1,0.9-2,2-2H463c1.1,0,2,0.9,2,2l0,0
						C465,350.7,464.1,351.6,463,351.6z" style="fill:#9ec9ef"></path>
          </g>
          <g>
            <path d="M463,351.9h-24.3c-1.3,0-2.3-1-2.3-2.3s1-2.3,2.3-2.3H463c1.3,0,2.3,1,2.3,2.3S464.3,351.9,463,351.9z
						 M438.7,347.9c-1,0-1.7,0.8-1.7,1.7c0,1,0.8,1.7,1.7,1.7H463c1,0,1.7-0.8,1.7-1.7c0-1-0.8-1.7-1.7-1.7H438.7z" style="fill:#3e414e"></path>
          </g>
        </g>
        <g>
          <path d="M438.7,348.4H463c1,0,1.8,0.7,2,1.6c0-0.1,0-0.3,0-0.4c0-1.1-0.9-2-2-2h-24.3c-1.1,0-2,0.9-2,2
					c0,0.1,0,0.3,0,0.4C436.9,349.1,437.7,348.4,438.7,348.4z" style="fill:#77b6e5"></path>
        </g>
        <g>
          <path d="M463,351.9h-24.3c-1.3,0-2.3-1-2.3-2.3s1-2.3,2.3-2.3H463c1.3,0,2.3,1,2.3,2.3S464.3,351.9,463,351.9z
					 M438.7,347.9c-1,0-1.7,0.8-1.7,1.7c0,1,0.8,1.7,1.7,1.7H463c1,0,1.7-0.8,1.7-1.7c0-1-0.8-1.7-1.7-1.7H438.7z" style="fill:#3e414e"></path>
        </g>
      </g>
      <g>
        <g>
          <polyline points="504.7 355.1 506.7 346.7 509.4 347.4 505 363.8" style="fill:#f08680"></polyline>
          <path d="M505,364.1C505,364.1,505,364.1,505,364.1c-0.2-0.1-0.3-0.2-0.3-0.4l4.3-16.1l-2.1-0.5l-2,8.1
					c0,0.2-0.2,0.3-0.4,0.2c-0.2,0-0.3-0.2-0.2-0.4l2.1-8.4c0-0.1,0.1-0.1,0.1-0.2s0.2-0.1,0.2,0l2.7,0.7c0.1,0,0.1,0.1,0.2,0.1
					c0,0.1,0.1,0.2,0,0.2l-4.4,16.4C505.3,364,505.1,364.1,505,364.1z" style="fill:#3e414e"></path>
        </g>
        <g>
          <polyline points="501.9 361.4 501.9 348.9 501.9 345.4 504.7 345.4 504.7 355.1 504.7 359.4" style="fill:#f08680"></polyline>
          <path d="M501.9,361.7c-0.2,0-0.3-0.1-0.3-0.3v-16c0-0.2,0.1-0.3,0.3-0.3h2.8c0.2,0,0.3,0.1,0.3,0.3v13.9
					c0,0.2-0.1,0.3-0.3,0.3s-0.3-0.1-0.3-0.3v-13.6h-2.2v15.7C502.2,361.6,502.1,361.7,501.9,361.7z" style="fill:#3e414e"></path>
        </g>
        <g>
          <polyline points="499.1 362.2 499.1 348.9 501.9 348.9 501.9 361.4" style="fill:#f08680"></polyline>
          <path d="M499.1,362.5c-0.2,0-0.3-0.1-0.3-0.3v-13.3c0-0.2,0.1-0.3,0.3-0.3h2.8c0.2,0,0.3,0.1,0.3,0.3v12.4
					c0,0.2-0.1,0.3-0.3,0.3s-0.3-0.1-0.3-0.3v-12.1h-2.2v13C499.4,362.4,499.3,362.5,499.1,362.5z" style="fill:#3e414e"></path>
        </g>
        <g>
          <polyline points="499.1 362.2 499.1 348.9 499.1 345.4 496.4 345.4 496.4 351.1 496.4 362.2" style="fill:#f08680"></polyline>
          <path d="M499.1,362.5c-0.2,0-0.3-0.1-0.3-0.3v-16.5h-2.2v16.5c0,0.2-0.1,0.3-0.3,0.3s-0.3-0.1-0.3-0.3v-16.8
					c0-0.2,0.1-0.3,0.3-0.3h2.8c0.2,0,0.3,0.1,0.3,0.3v16.8C499.4,362.4,499.3,362.5,499.1,362.5z" style="fill:#3e414e"></path>
        </g>
        <g>
          <polyline points="490.8 359.4 490.8 355.1 490.8 345.4 493.6 345.4 493.6 351.1 493.6 361.4" style="fill:#f08680"></polyline>
          <path d="M493.6,361.7c-0.2,0-0.3-0.1-0.3-0.3v-15.7h-2.2v13.6c0,0.2-0.1,0.3-0.3,0.3s-0.3-0.1-0.3-0.3v-13.9
					c0-0.2,0.1-0.3,0.3-0.3h2.8c0.2,0,0.3,0.1,0.3,0.3v16C493.9,361.6,493.8,361.7,493.6,361.7z" style="fill:#3e414e"></path>
        </g>
        <g>
          <polygon points="490.8 363.3 486.3 347.3 489 346.7 490.8 355.1" style="fill:#f08680"></polygon>
          <path d="M490.8,363.6c-0.1,0-0.3-0.1-0.3-0.2l-4.5-16c0-0.1,0-0.2,0-0.2c0-0.1,0.1-0.1,0.2-0.1l2.7-0.6
					c0.1,0,0.2,0,0.2,0s0.1,0.1,0.1,0.2l1.8,8.4l0,8.3C491.1,363.5,491,363.6,490.8,363.6C490.9,363.6,490.8,363.6,490.8,363.6z
					 M486.7,347.5l3.8,13.6v-6l-1.7-8.1L486.7,347.5z" style="fill:#3e414e"></path>
        </g>
        <g>
          <polyline points="496.4 363.1 496.4 351.1 493.6 351.1 493.6 362.2" style="fill:#f08680"></polyline>
          <path d="M496.4,363.4c-0.2,0-0.3-0.1-0.3-0.3v-11.7h-2.2v10.8c0,0.2-0.1,0.3-0.3,0.3s-0.3-0.1-0.3-0.3v-11.1
					c0-0.2,0.1-0.3,0.3-0.3h2.8c0.2,0,0.3,0.1,0.3,0.3v12C496.7,363.3,496.5,363.4,496.4,363.4z" style="fill:#3e414e"></path>
        </g>
        <g>
          <path d="M507.4,352.3c0,5.3-4.3,9.7-9.7,9.7s-9.7-4.3-9.7-9.7h-4.1l2.8,24.9h22.1l2.8-24.9H507.4z" style="fill:#fff"></path>
          <path d="M508.8,377.5h-22.1c-0.2,0-0.3-0.1-0.3-0.3l-2.8-24.9c0-0.1,0-0.2,0.1-0.2c0.1-0.1,0.1-0.1,0.2-0.1h4.1
					c0.2,0,0.3,0.1,0.3,0.3c0,5.2,4.2,9.4,9.4,9.4s9.4-4.2,9.4-9.4c0-0.2,0.1-0.3,0.3-0.3h4.1c0.1,0,0.2,0,0.2,0.1
					c0.1,0.1,0.1,0.2,0.1,0.2l-2.8,24.9C509.1,377.4,509,377.5,508.8,377.5z M486.9,376.9h21.6l2.7-24.3h-3.5
					c-0.2,5.4-4.6,9.7-10,9.7s-9.8-4.3-10-9.7h-3.5L486.9,376.9z" style="fill:#3e414e"></path>
        </g>
        <g>
          <polygon points="509.6 370.3 500.9 370.3 494.6 370.3 485.9 370.3 485.6 367.6 494.6 367.6 500.9 367.6 509.9 367.6" style="fill:#f08680"></polygon>
          <path d="M509.6,370.6h-23.7c-0.2,0-0.3-0.1-0.3-0.3l-0.3-2.8c0-0.1,0-0.2,0.1-0.2c0.1-0.1,0.1-0.1,0.2-0.1h24.3
					c0.1,0,0.2,0,0.2,0.1c0.1,0.1,0.1,0.1,0.1,0.2l-0.3,2.8C509.9,370.5,509.7,370.6,509.6,370.6z M486.2,370h23.1l0.2-2.2h-23.6
					L486.2,370z" style="fill:#3e414e"></path>
        </g>
        <g>
          <g>
            <circle cx="497.7" cy="368.9" r="3.5" style="fill:#9ec9ef"></circle>
          </g>
          <g>
            <path d="M497.7,372.7c-2.1,0-3.8-1.7-3.8-3.8s1.7-3.8,3.8-3.8s3.8,1.7,3.8,3.8S499.8,372.7,497.7,372.7z
						 M497.7,365.8c-1.7,0-3.2,1.4-3.2,3.2s1.4,3.2,3.2,3.2s3.2-1.4,3.2-3.2S499.5,365.8,497.7,365.8z" style="fill:#3e414e"></path>
          </g>
        </g>
        <g>
          <path d="M497.7,365.5c-1.4,0-2.6,0.8-3.1,2c0.4-0.2,0.9-0.3,1.4-0.3c1.9,0,3.5,1.5,3.5,3.5c0,0.5-0.1,1-0.3,1.4
					c1.2-0.5,2-1.7,2-3.1C501.2,367,499.7,365.5,497.7,365.5z" style="fill:#77b6e5"></path>
        </g>
        <g>
          <path d="M497.7,372.7c-2.1,0-3.8-1.7-3.8-3.8s1.7-3.8,3.8-3.8s3.8,1.7,3.8,3.8S499.8,372.7,497.7,372.7z
					 M497.7,365.8c-1.7,0-3.2,1.4-3.2,3.2s1.4,3.2,3.2,3.2s3.2-1.4,3.2-3.2S499.5,365.8,497.7,365.8z" style="fill:#3e414e"></path>
        </g>
      </g>
      <g>
        <polygon points="643.6 268.3 661.2 255 663.4 278.5 655.7 268.8" style="fill:#3c4150"></polygon>
      </g>
      <g>
        <path d="M626.1,385.1c-0.1,0-0.3-0.1-0.3-0.2c0-0.2,0.1-0.3,0.2-0.4c2.5-0.6,4.7-1.5,6.7-2.5c0.2-0.1,0.3,0,0.4,0.1
				c0.1,0.1,0,0.3-0.1,0.4C631,383.6,628.7,384.4,626.1,385.1C626.2,385.1,626.2,385.1,626.1,385.1z M638.9,378.4
				c-0.1,0-0.2,0-0.2-0.1c-0.1-0.1-0.1-0.3,0-0.4c1.7-1.6,3.1-3.6,4.2-5.7c0.1-0.1,0.3-0.2,0.4-0.1c0.1,0.1,0.2,0.3,0.1,0.4
				c-1.1,2.2-2.6,4.2-4.4,5.9C639,378.4,638.9,378.4,638.9,378.4z M645.5,365.8C645.5,365.8,645.5,365.8,645.5,365.8
				c-0.2,0-0.3-0.2-0.3-0.4c0.5-2.2,0.7-4.6,0.8-7.2c0-0.2,0.1-0.3,0.3-0.3c0.2,0,0.3,0.1,0.3,0.3c-0.1,2.6-0.3,5.1-0.8,7.3
				C645.8,365.7,645.6,365.8,645.5,365.8z M646.1,351.4c-0.2,0-0.3-0.1-0.3-0.3c-0.2-2.2-0.5-4.6-0.9-7.2c0-0.2,0.1-0.3,0.3-0.3
				c0.2,0,0.3,0.1,0.3,0.3c0.4,2.6,0.7,5,0.9,7.2C646.4,351.2,646.3,351.3,646.1,351.4C646.1,351.4,646.1,351.4,646.1,351.4z
				 M643.9,337c-0.1,0-0.3-0.1-0.3-0.2c-0.1-0.5-0.2-1-0.3-1.4c-0.4-1.8-0.6-3.7-0.8-5.8c0-0.2,0.1-0.3,0.3-0.3
				c0.2,0,0.3,0.1,0.3,0.3c0.1,2,0.4,3.9,0.8,5.7c0.1,0.5,0.2,1,0.3,1.5C644.2,336.8,644.1,337,643.9,337
				C643.9,337,643.9,337,643.9,337z M642.7,322.6C642.7,322.6,642.7,322.6,642.7,322.6c-0.2,0-0.3-0.1-0.3-0.3
				c0.1-2.3,0.3-4.7,0.5-7.3c0-0.2,0.2-0.3,0.3-0.3c0.2,0,0.3,0.2,0.3,0.3c-0.3,2.5-0.5,5-0.5,7.2
				C643,322.5,642.9,322.6,642.7,322.6z M644.3,308.1C644.3,308.1,644.2,308.1,644.3,308.1c-0.2,0-0.3-0.2-0.3-0.4
				c0.4-2.3,0.8-4.7,1.4-7.1c0-0.2,0.2-0.3,0.4-0.2c0.2,0,0.3,0.2,0.2,0.4c-0.5,2.4-1,4.8-1.4,7.1
				C644.6,308,644.4,308.1,644.3,308.1z M647.3,293.9C647.2,293.9,647.2,293.9,647.3,293.9c-0.2,0-0.3-0.2-0.3-0.4
				c0.6-2.3,1.2-4.7,1.9-7c0-0.2,0.2-0.3,0.4-0.2c0.2,0,0.3,0.2,0.2,0.4c-0.7,2.4-1.3,4.7-1.9,7
				C647.5,293.8,647.4,293.9,647.3,293.9z M651.2,279.9C651.2,279.9,651.1,279.9,651.2,279.9c-0.3-0.1-0.3-0.2-0.3-0.4
				c1.3-4.2,2.3-6.9,2.3-6.9c0.1-0.2,0.2-0.2,0.4-0.2c0.2,0.1,0.2,0.2,0.2,0.4c0,0-1,2.7-2.3,6.9
				C651.5,279.9,651.3,279.9,651.2,279.9z" style="fill:#e1e4e1"></path>
      </g>
      <g>
        <circle cx="456" cy="421" r="4.1" style="fill:#e1e4e1"></circle>
        <path d="M456,425.5c-2.5,0-4.4-2-4.4-4.5s2-4.5,4.4-4.5s4.4,2,4.4,4.5S458.5,425.5,456,425.5z M456,417.2
				c-2.1,0-3.8,1.7-3.8,3.8s1.7,3.8,3.8,3.8s3.8-1.7,3.8-3.8S458.1,417.2,456,417.2z" style="fill:#3e414e"></path>
      </g>
      <g>
        <circle cx="474.1" cy="421" r="4.1" style="fill:#e1e4e1"></circle>
        <path d="M474.1,425.5c-2.5,0-4.4-2-4.4-4.5s2-4.5,4.4-4.5s4.4,2,4.4,4.5S476.6,425.5,474.1,425.5z M474.1,417.2
				c-2.1,0-3.8,1.7-3.8,3.8s1.7,3.8,3.8,3.8s3.8-1.7,3.8-3.8S476.2,417.2,474.1,417.2z" style="fill:#3e414e"></path>
      </g>
      <g>
        <circle cx="492.2" cy="421" r="4.1" style="fill:#e1e4e1"></circle>
        <path d="M492.2,425.5c-2.5,0-4.4-2-4.4-4.5s2-4.5,4.4-4.5s4.4,2,4.4,4.5S494.7,425.5,492.2,425.5z M492.2,417.2
				c-2.1,0-3.8,1.7-3.8,3.8s1.7,3.8,3.8,3.8s3.8-1.7,3.8-3.8S494.4,417.2,492.2,417.2z" style="fill:#3e414e"></path>
      </g>
      <g>
        <g>
          <path d="M263.8,272c0-7.5,6.1-13.6,13.6-13.6h41.2c7.5,0,13.6,6.1,13.6,13.6c0,7.5-6.1,13.6-13.6,13.6h-31.4
					l-10.5,10l0.6-10C269.9,285.6,263.8,279.5,263.8,272z" style="fill:#fff"></path>
          <path d="M276.8,295.8c0,0-0.1,0-0.1,0c-0.1-0.1-0.2-0.2-0.2-0.3l0.6-9.6c-7.5-0.2-13.6-6.3-13.6-13.9
					c0-7.7,6.2-13.9,13.9-13.9h41.2c7.7,0,13.9,6.2,13.9,13.9s-6.2,13.9-13.9,13.9h-31.3l-10.4,9.9
					C276.9,295.8,276.9,295.8,276.8,295.8z M277.4,258.7c-7.3,0-13.3,6-13.3,13.3s6,13.3,13.3,13.3c0.1,0,0.2,0,0.2,0.1
					s0.1,0.1,0.1,0.2l-0.5,9.2l9.9-9.4c0.1-0.1,0.1-0.1,0.2-0.1h31.4c7.3,0,13.3-6,13.3-13.3s-6-13.3-13.3-13.3H277.4z" style="fill:#3e414e"></path>
        </g>
        <g>
          <path d="M318.6,281.9c5.5,0,9.9-4.5,9.9-9.9s-4.5-9.9-9.9-9.9h-41.2c-5.5,0-9.9,4.5-9.9,9.9s4.5,9.9,9.9,9.9H318.6z
					" style="fill:#f08680"></path>
        </g>
      </g>
      <g>
        <polygon points="278.9 265.3 280.5 270.1 285.6 270.1 281.5 273.1 283.1 277.9 278.9 274.9 274.8 277.9 276.4 273.1 272.3 270.1 277.4 270.1" style="fill:#fff"></polygon>
      </g>
      <g>
        <polygon points="298 265.3 299.6 270.1 304.7 270.1 300.5 273.1 302.1 277.9 298 274.9 293.9 277.9 295.5 273.1 291.3 270.1 296.4 270.1" style="fill:#fff"></polygon>
      </g>
      <g>
        <polygon points="317.1 265.3 318.6 270.1 323.7 270.1 319.6 273.1 321.2 277.9 317.1 274.9 312.9 277.9 314.5 273.1 310.4 270.1 315.5 270.1" style="fill:#fff"></polygon>
      </g>
      <g>
        <g>
          <path d="M362.2,373v32c0,1.5-1.2,2.6-2.6,2.6h-34l-13.1,10.8v-10.8h-4.5c-1.5,0-2.6-1.2-2.6-2.6v-32
					c0-1.5,1.2-2.6,2.6-2.6h51.6C361,370.3,362.2,371.5,362.2,373z" style="fill:#fff"></path>
          <path d="M312.4,418.7c0,0-0.1,0-0.1,0c-0.1,0-0.2-0.2-0.2-0.3v-10.4h-4.2c-1.6,0-2.9-1.3-2.9-2.9v-32
					c0-1.6,1.3-2.9,2.9-2.9h51.6c1.6,0,2.9,1.3,2.9,2.9v32c0,1.6-1.3,2.9-2.9,2.9h-33.9l-13,10.7
					C312.6,418.7,312.5,418.7,312.4,418.7z M307.9,370.6c-1.3,0-2.3,1-2.3,2.3v32c0,1.3,1,2.3,2.3,2.3h4.5c0.2,0,0.3,0.1,0.3,0.3
					v10.1l12.6-10.3c0.1,0,0.1-0.1,0.2-0.1h34c1.3,0,2.3-1,2.3-2.3v-32c0-1.3-1-2.3-2.3-2.3H307.9z" style="fill:#3e414e"></path>
        </g>
        <g>
          <rect width="47.5" height="27.8" x="310.2" y="374.6" style="fill:#9ec9ef"></rect>
        </g>
        <g>
          <polygon points="311.9 374.6 311.9 400.6 357.7 400.6 357.7 402.4 310.2 402.4 310.2 374.6" style="fill:#77b6e5"></polygon>
        </g>
      </g>
      <g>
        <path d="M353.4,383.8h-36.5c-0.2,0-0.3-0.1-0.3-0.3s0.1-0.3,0.3-0.3h36.5c0.2,0,0.3,0.1,0.3,0.3
				S353.5,383.8,353.4,383.8z" style="fill:#f4f4f4"></path>
      </g>
      <g>
        <path d="M353.4,388.8h-36.5c-0.2,0-0.3-0.1-0.3-0.3s0.1-0.3,0.3-0.3h36.5c0.2,0,0.3,0.1,0.3,0.3
				S353.5,388.8,353.4,388.8z" style="fill:#f4f4f4"></path>
      </g>
      <g>
        <path d="M353.4,393.8h-36.5c-0.2,0-0.3-0.1-0.3-0.3s0.1-0.3,0.3-0.3h36.5c0.2,0,0.3,0.1,0.3,0.3
				S353.5,393.8,353.4,393.8z" style="fill:#f4f4f4"></path>
      </g>
    </g>
  </g>
</svg>
